<svg
 xmlns="http://www.w3.org/2000/svg"
 xmlns:xlink="http://www.w3.org/1999/xlink"
 width="15px" height="27px">
<path fill-rule="evenodd"  fill="rgb(65, 69, 148)"
 d="M1.313,14.191 L4.178,14.191 L4.178,25.621 C4.178,25.847 4.367,26.029 4.600,26.029 L9.458,26.029 C9.690,26.029 9.878,25.847 9.878,25.621 L9.878,14.245 L13.172,14.245 C13.386,14.245 13.566,14.090 13.590,13.884 L14.091,9.676 C14.104,9.560 14.066,9.445 13.986,9.358 C13.906,9.271 13.792,9.221 13.672,9.221 L9.879,9.221 L9.879,6.583 C9.879,5.788 10.321,5.385 11.191,5.385 C11.316,5.385 13.672,5.385 13.672,5.385 C13.905,5.385 14.093,5.202 14.093,4.976 L14.093,1.115 C14.093,0.889 13.905,0.706 13.672,0.706 L10.254,0.706 C10.230,0.705 10.176,0.703 10.097,0.703 C9.505,0.703 7.443,0.816 5.815,2.268 C4.010,3.877 4.261,5.803 4.321,6.137 L4.321,9.221 L1.313,9.221 C1.081,9.221 0.892,9.403 0.892,9.630 L0.892,13.783 C0.892,14.009 1.081,14.191 1.313,14.191 Z"/>
</svg>
