<svg xmlns="http://www.w3.org/2000/svg" viewBox="0 0 178.39867 367.68399" height="367.68399" width="178.39867">
  <defs>
    <clipPath id="a">
      <path d="M0 275.763h133.799V0H0z"/>
    </clipPath>
    <clipPath id="b">
      <path d="M38.6865 190.489h6.4932v-4.344h-6.4932z"/>
    </clipPath>
    <clipPath id="c">
      <path d="M69.8838 184.496h6.7012v-4.098h-6.7012z"/>
    </clipPath>
  </defs>
  <g clip-path="url(#a)" transform="matrix(1.33333 0 0 -1.33333 0 367.684)">
    <path d="M30.3105 203.7207c-19.865 4.847-8.346 36.802 11.717 34.591 3.846 12.464 26.274 19.645 31.804 5.94-.463 1.148 9.872 2.228 10.809 2.157 3.575-.247 7.119-1.434 10.038-3.533 2.736-1.975 5.19-4.954 5.997-8.298 1.178-4.905-1.303-9.612.824-14.671 2.032-4.813 5.68-8.808 7.907-13.583 2.52-5.419 3.527-12.48 2.323-18.297-1.03-4.976-3.972-9.459-6.182-13.954-2.016-4.1-3.171-8.606-2.332-13.124.824-4.399 2.802-8.571 2.626-13.249-.404-10.793-9.717-19.663-19.523-22.08-7.149-1.765-20.973-2.706-24.834 5.408-4.574 9.583-.508 21.904-1.959 32.117-.618 4.356-2.084 8.643-4.352 12.42-2.295 3.817-4.56 5.199-8.238 7.208-3.802 2.076-7.074 6.225-9.732 9.574-1.466 1.833-2.824 3.758-4.038 5.772-.433.722-2.285 5.461-2.855 5.602" fill="#ffd600" fill-rule="evenodd"/>
    <path d="M75.2686 243.6377c.001-.034.002-.063.004-.088l-.019.056zm-45.408-41.414c-6.417 1.594-9.884 5.766-11.019 10.817-.603 2.688-.529 5.612.124 8.505.646 2.863 1.857 5.701 3.532 8.253 3.958 6.031 10.528 10.54 18.461 10.165 2.074 5.138 6.972 9.307 12.464 11.522 2.216.894 4.546 1.476 6.838 1.679 2.327.206 4.613.021 6.706-.625 3.108-.958 5.774-2.902 7.522-6.04.679.213 1.549.409 2.489.581 3.068.563 7.168.935 7.78.89l.048-.005c1.934-.139 3.859-.533 5.694-1.179 1.8-.633 3.524-1.516 5.091-2.643 1.567-1.132 3.052-2.569 4.238-4.21 1.089-1.509 1.933-3.196 2.367-4.988l.015-.079c.559-2.39.356-4.624.151-6.865-.229-2.507-.459-5.027.578-7.49 1.015-2.406 2.494-4.653 3.976-6.907 1.411-2.145 2.828-4.296 3.911-6.62.013-.03.025-.059.037-.088 1.322-2.866 2.243-6.167 2.668-9.517.418-3.289.357-6.632-.272-9.666-.814-3.935-2.703-7.478-4.556-10.953-.609-1.142-1.213-2.275-1.754-3.375l-.002-.004.002-.002c-.95-1.928-1.694-3.949-2.102-6.013-.4-2.024-.475-4.084-.097-6.131h.001c.271-1.445.688-2.914 1.104-4.386.834-2.942 1.672-5.899 1.547-9.206-.207-5.549-2.59-10.607-6.164-14.649-3.862-4.367-9.133-7.559-14.547-8.893-4.351-1.074-11.095-1.853-16.776-.615-4.283.932-8.001 2.992-9.845 6.868-2.969 6.219-2.524 13.305-2.084 20.305.267 4.242.531 8.452-.01 12.264l-.006.047c-.299 2.086-.801 4.153-1.5 6.148-.688 1.966-1.57 3.866-2.638 5.643-1.04 1.731-2.069 2.906-3.251 3.873-1.227 1.003-2.64 1.81-4.394 2.766-4.05 2.213-7.402 6.437-10.133 9.878l-.076.094c-.025.033-.049.066-.072.099-.744.935-1.455 1.883-2.126 2.843-.708 1.013-1.364 2.013-1.955 2.996-.025.041-.047.083-.068.125-.199.363-.474.986-.796 1.715-.59 1.338-.662 2.962-1.024 3.051zm.887 2.996c.418-.121.75-.405.942-.767.787-.982 1.535-2.678 2.137-4.041.296-.67.548-1.243.652-1.442l.027-.043c.604-1.001 1.215-1.942 1.833-2.825.649-.927 1.32-1.824 2.009-2.69.027-.029.054-.06.08-.092l.074-.095c2.559-3.223 5.7-7.181 9.181-9.081 1.925-1.052 3.483-1.942 4.882-3.085 1.444-1.181 2.695-2.607 3.949-4.693 1.178-1.961 2.151-4.053 2.908-6.218.767-2.189 1.317-4.452 1.645-6.733l.008-.049c.586-4.128.311-8.498.035-12.901-.415-6.594-.834-13.268 1.789-18.764 1.359-2.856 4.275-4.413 7.679-5.154 5.16-1.123 11.354-.4 15.368.591 4.816 1.187 9.511 4.032 12.955 7.926 3.122 3.531 5.201 7.917 5.381 12.69.105 2.808-.668 5.535-1.438 8.251-.431 1.528-.865 3.053-1.164 4.655v.006c-.459 2.47-.376 4.921.094 7.302.465 2.343 1.305 4.626 2.373 6.796l.002-.001c.578 1.176 1.187 2.318 1.801 3.467 1.746 3.276 3.527 6.616 4.25 10.109.558 2.697.61 5.691.234 8.65-.383 3.021-1.215 6.003-2.41 8.595l-.038.078c-1.023 2.195-2.353 4.215-3.678 6.23-1.563 2.376-3.122 4.745-4.245 7.408-1.34 3.184-1.074 6.092-.811 8.984.182 1.991.364 3.973-.08 5.874l-.013.053c-.334 1.38-.998 2.7-1.866 3.9-.981 1.358-2.217 2.553-3.525 3.499-1.31.94-2.768 1.684-4.309 2.226-1.571.554-3.22.892-4.877 1.01l-.056.003c-.502.037-4.143-.319-6.985-.841-.906-.166-1.705-.346-2.246-.525-.011-.004-.018.022-.022.067l-.019.056c-.16-.354-.451-.649-.841-.805-.801-.321-1.711.068-2.032.869-1.273 3.156-3.576 5.032-6.333 5.883-1.702.525-3.585.674-5.517.502-1.969-.174-3.994-.684-5.945-1.471-5.091-2.053-9.564-5.96-11.046-10.673-.194-.736-.903-1.24-1.684-1.154-7.16.789-13.16-3.222-16.738-8.671-1.479-2.252-2.541-4.737-3.103-7.225-.555-2.455-.624-4.91-.124-7.134.887-3.945 3.632-7.213 8.736-8.476l.058-.012c.021-.005.042-.012.063-.019" fill="#5c5c5b" fill-rule="evenodd"/>
    <path d="M71.165 154.0068l1.144 14.296c7.929.037 14.354-10.259 20.966-16.195 6.613-5.944 25.42-19.066 38.798-17.814.655-7.691-5.059-10.68-11.563-9.147.277-5.235-.61-7.072-8.089 2.64-26.176 8.17-38.56 22.104-41.256 26.22" fill="#f4cec5" fill-rule="evenodd"/>
    <path d="M72.3145 166.7422c-.861-.003-1.564.692-1.566 1.555-.004.861.693 1.563 1.554 1.567 6.434.029 11.621-5.616 16.656-11.095 1.803-1.963 3.587-3.904 5.364-5.499 3.872-3.48 12.004-9.468 20.719-13.47 5.787-2.658 11.8-4.428 16.89-3.952.86.079 1.619-.555 1.696-1.414l.001-.012.006.001c.129-1.524.033-2.899-.256-4.121-.511-2.174-1.621-3.857-3.142-5.049-1.493-1.17-3.356-1.84-5.412-2.015-.875-.074-1.786-.059-2.721.045-.079-2.574-.763-4.164-2.863-3.977-1.526.137-3.895 2.177-7.752 7.133-9.967 3.157-17.946 7.135-24.158 11.083-10.229 6.501-15.75 12.993-17.475 15.628-.474.723-.27 1.694.453 2.167.723.473 1.694.27 2.166-.453 1.6-2.442 6.775-8.496 16.531-14.697 6.115-3.885 13.998-7.803 23.881-10.887l-.001-.002c.296-.093.568-.273.772-.537 3.442-4.469 5.173-6.264 5.852-6.324.336-.03-.439 1.044-.552 2.535-.023.178-.014.363.029.549.195.842 1.037 1.365 1.879 1.169 1.294-.304 2.547-.408 3.701-.31 1.463.124 2.754.574 3.748 1.354.965.756 1.676 1.853 2.016 3.298.119.502.193 1.048.218 1.639-5.291-.071-11.179 1.726-16.805 4.309-9.054 4.157-17.496 10.373-21.514 13.984-1.873 1.682-3.713 3.684-5.573 5.708-4.576 4.981-9.293 10.112-14.342 10.09" fill="#5c5c5b" fill-rule="evenodd"/>
    <path d="M71.0986 170.4551c1.065 5.118-10.573 9.82-15.856 8.604-5.148-1.185-7.53-6.446-8.034-11.278-.203-1.98-.372-3.964-.455-5.948-.4-9.833 3.543-29.131 17.528-20.38 8.265 5.177 4.842 19.539 6.817 29.002M40.3623 148.9395l3.5 19.563-8.176-3.42-12.657-13.461-6.803.809c-3.002 1.409-3.886 4.605-3.455 7.524.266 1.796 1.857 5.464.41 7.043-1.797 1.961-5.066-1.267-5.9-2.842-1.203-2.271-1.223-5.092-.607-7.529.317-1.246.812-2.462 1.515-3.541.286-.448 2.391-2.26 2.397-2.536.148-7.477 4.718-19.853 4.943-20.248.546-.941 12.439-.262 24.833 18.638" fill="#f4cec5" fill-rule="evenodd"/>
    <path d="M16.8877 153.8447c.78-.365 1.118-1.295.753-2.075-.365-.78-1.295-1.118-2.075-.753-1.763.827-2.949 2.142-3.656 3.683-.778 1.696-.959 3.646-.687 5.481.077.522.24 1.137.417 1.81.395 1.498.895 3.393.394 3.951l-.003-.003c-.04.044-.075.072-.101.086-.111.058-.32.015-.57-.084-.465-.186-.961-.545-1.411-.958-.589-.539-1.061-1.134-1.284-1.556-.462-.871-.711-1.859-.794-2.878-.095-1.187.036-2.408.319-3.537h.002c.146-.574.331-1.133.555-1.657.214-.498.464-.976.753-1.419l.012-.021c.061-.068.461-.455.875-.853.855-.823 1.744-1.677 1.76-2.481.049-2.458.613-5.523 1.338-8.495 1.16-4.753 2.685-9.145 3.218-10.553.26.03.742.114 1.462.269 1.41.303 3.314.983 5.573 2.294 4.279 2.483 9.723 7.173 15.315 15.701.473.723 1.443.926 2.166.453.724-.473.927-1.443.453-2.167-5.904-9.006-11.745-14.01-16.367-16.693-2.582-1.498-4.815-2.288-6.49-2.649-1.983-.426-3.475-.214-4.057.167l.003.004-.003.001c-.25.164-.443.367-.581.605h.001l-.008.012c-.158.278-2.275 5.9-3.72 11.822-.772 3.155-1.372 6.447-1.424 9.168-.01.497-.407-.095-.805.29-.5.48-.985.949-1.252 1.302-.031.039-.06.08-.09.123-.392.604-.728 1.241-1.009 1.895-.298.696-.535 1.405-.715 2.111h.002l-.002.006c-.364 1.443-.53 3.01-.405 4.547.115 1.418.475 2.819 1.149 4.09.363.687 1.081 1.609 1.944 2.4.7.642 1.52 1.22 2.365 1.558 1.06.423 2.158.49 3.179-.05.342-.18.658-.424.945-.735l-.004-.003.004-.004c1.662-1.813.918-4.631.332-6.855-.15-.571-.288-1.091-.343-1.467-.191-1.286-.08-2.618.429-3.73.414-.9 1.108-1.67 2.138-2.153" fill="#5c5c5b" fill-rule="evenodd"/>
    <path d="M41.8379 148.4316c-.281-.814-1.169-1.248-1.984-.967-.815.28-1.247 1.168-.967 1.984l7.675 22.123c.28.815 1.169 1.248 1.983.967.814-.281 1.248-1.169.967-1.983z" fill="#5c5c5b" fill-rule="evenodd"/>
    <path d="M47.792 172.6064c.852.135 1.652-.446 1.787-1.298.136-.851-.446-1.652-1.298-1.788-11.655-1.849-25.06-20.392-25.099-20.444-.511-.697-1.489-.847-2.186-.337-.696.511-.847 1.489-.336 2.185.041.056 14.179 19.627 27.132 21.682" fill="#5c5c5b" fill-rule="evenodd"/>
    <path d="M57.3984 73.3271c.604 11.828 3.246 48.189-14.552 45.447-9.079-1.398-11.027-13.238-9.12-21.584 2.83-12.435 4.09-25.618 5.122-38.469.82-10.296 6.505-29.376 1.257-38.642-1.986-3.504-5.227-6.559-6.982-10.166-.764-1.569-1.62-3.609-.807-5.261 1.221-2.481 5.311-1.25 8.09-1.888 2.431-.559 3.688-.593 5.15 1.141 3.833 4.531 7.037 8.635 9.196 13.732 2.111 4.996.093 11.064.744 16.257 1.651 13.206 1.222 26.186 1.902 39.433" fill="#f4cec5" fill-rule="evenodd"/>
    <path d="M59.3027 74.6875l-.076-1.454c-.237-4.64-.34-9.154-.44-13.655-.194-8.648-.387-17.254-1.468-25.906-.235-1.869-.087-3.942.062-6.032.256-3.608.516-7.263-.942-10.715-1.142-2.694-2.542-5.1-4.151-7.414-1.581-2.272-3.377-4.476-5.333-6.79l-.004.003c-1.038-1.229-2.053-1.843-3.297-2.058-1.099-.189-2.219-.018-3.657.312-.747.171-1.712.175-2.665.179-2.698.009-5.347.02-6.658 2.684-.621 1.263-.623 2.593-.331 3.873.253 1.112.706 2.13 1.132 3.001l.002-.001c1.038 2.133 2.492 4.008 3.942 5.879 1.127 1.453 2.253 2.906 3.094 4.39 3.522 6.218 1.559 17.924-.071 27.644-.623 3.706-1.199 7.139-1.422 9.951-.514 6.391-1.084 12.87-1.88 19.311-.791 6.402-1.799 12.729-3.183 18.827l-.015.065c-.15.652-.275 1.301-.372 1.937-.65 4.219-.406 9.009 1.055 13.01 1.553 4.252 4.449 7.636 9.054 8.688l.001-.001.006.001c.324.074.621.132.888.173 10.156 1.565 14.497-7.314 16.188-18.294 1.498-9.721.888-21.138.541-27.608m-3.734-1.267l.077 1.453c.338 6.324.934 17.482-.513 26.877-1.389 9.01-4.668 16.341-12.014 15.209-.246-.038-.454-.077-.623-.115v-.001c-3.213-.734-5.279-3.219-6.427-6.364-1.241-3.396-1.438-7.531-.87-11.216.09-.591.196-1.147.315-1.665l.015-.074c1.428-6.292 2.456-12.728 3.254-19.191.799-6.471 1.375-13.011 1.895-19.468.215-2.698.773-6.032 1.379-9.635 1.726-10.299 3.807-22.7-.358-30.055-.968-1.708-2.175-3.263-3.381-4.82-1.335-1.722-2.673-3.447-3.544-5.239l-.003-.006.003-.001c-.34-.696-.697-1.485-.859-2.198-.124-.543-.147-1.06.044-1.449.313-.635 1.829-.642 3.373-.648 1.179-.004 2.369-.009 3.483-.264.994-.228 1.718-.354 2.222-.268.356.061.699.299 1.12.8l.004.003-.004.003c1.876 2.219 3.599 4.332 5.119 6.518 1.491 2.144 2.773 4.339 3.791 6.74 1.111 2.63.882 5.853.656 9.035-.162 2.279-.323 4.539-.049 6.736 1.074 8.594 1.265 17.044 1.455 25.532.103 4.603.207 9.22.44 13.771" fill="#5c5c5b" fill-rule="evenodd"/>
    <path d="M83.125 91.9482c-6.043 8.314-16.894 26.471-26.356 26.987-12.875.705-4.12-21.719-.24-29.595 8.416-17.127 23.238-23.11 31.233-41.319 2.595-5.91 4.398-12.845 5.484-19.246.984-5.782.547-11.997.121-18.174-.185-2.704-.504-6.995 1.93-8.372 1.403-.8 3.195.391 4.746 1.269 1.869 1.053 3.769 1.881 5.232 3.534 2.957 3.355 3.776 19.138 2.35 21.991-1.953 3.92-2.007 8.791-3.184 13.088-5.132 18.687-10.421 34.851-21.316 49.837" fill="#f4cec5" fill-rule="evenodd"/>
    <path d="M81.4912 97.4717c1.103-1.599 2.117-3.069 3.119-4.447 5.538-7.619 9.652-15.538 13.034-23.926 3.35-8.312 5.976-17.092 8.562-26.507.471-1.718.759-3.426 1.046-5.135.453-2.693.906-5.391 2.015-7.616l-.005-.002c.921-1.85 1.103-7.75.522-13.194-.487-4.569-1.524-9-3.132-10.824l-.004.003-.004-.003c-1.41-1.596-3.029-2.469-4.687-3.365-.298-.16-.602-.324-.974-.533l-.029-.017-.424-.244-.003.007c-1.877-1.082-3.953-2.275-6.135-1.032-3.416 1.934-3.076 6.862-2.859 10.018l.005.069.009.123c.415 6.03.832 12.096-.108 17.627-.558 3.29-1.314 6.736-2.278 10.12-.864 3.033-1.889 5.989-3.077 8.696-4.026 9.168-9.922 15.216-15.801 21.246-5.597 5.741-11.18 11.468-15.344 19.896-.017.031-.036.064-.052.098-1.817 3.686-4.679 10.498-5.997 16.757-.689 3.282-.962 6.448-.464 9.027.577 2.992 2.119 5.223 5.07 6.105.973.292 2.091.415 3.365.345 8.897-.485 18.182-13.943 24.63-23.292m.149-6.6c-.875 1.204-1.97 2.793-3.162 4.52-6.03 8.741-14.713 21.327-21.802 21.715-.84.045-1.547-.028-2.133-.202-1.428-.427-2.198-1.632-2.516-3.28-.398-2.061-.148-4.743.45-7.591 1.242-5.902 3.964-12.372 5.695-15.883.015-.031.029-.061.042-.091 3.899-7.896 9.29-13.427 14.694-18.97 6.109-6.266 12.236-12.551 16.533-22.336 1.271-2.893 2.35-6.002 3.249-9.156.994-3.489 1.78-7.076 2.364-10.521 1.012-5.956.581-12.232.151-18.474l-.009-.123-.005-.07c-.155-2.259-.398-5.791 1.009-6.587.372-.212 1.494.433 2.509 1.018l.003.001-.003.006.424.243.054.029c.298.168.664.366 1.033.565 1.374.74 2.713 1.463 3.681 2.557l-.004.002c1.062 1.206 1.823 4.866 2.243 8.788.521 4.875.491 9.889-.151 11.174l-.001.002-.006-.002c-1.345 2.699-1.845 5.676-2.345 8.649-.278 1.649-.555 3.298-.96 4.776-2.546 9.271-5.133 17.917-8.433 26.106-3.272 8.112-7.249 15.77-12.604 23.135" fill="#5c5c5b" fill-rule="evenodd"/>
    <path d="M77.082 130.0391l-36.651.89s-19.753-9.849-20.741-67.363c2.181-10.45 11.396-13.73 25.247-10.209 4.327-6.418 22.229-7.082 33.782-.043 13.082-3.456 21.597 5.855 24.845 12.87-7.898 20.584-1.306 45.595-26.482 63.855" fill="#ee751e" fill-rule="evenodd"/>
    <path d="M39.7012 132.3115c.765.402 1.711.109 2.113-.654.402-.765.109-1.711-.655-2.113-.054-.028-18.895-9.409-19.903-65.822.041-.187.089-.389.143-.602h.001c1.047-4.118 3.38-6.879 6.795-8.318 3.583-1.51 8.395-1.64 14.211-.428.652.136 1.367.303 2.146.501.672.171 1.355-.123 1.709-.679 1.934-2.817 7.186-4.342 13.319-4.349 6.09-.009 12.939 1.521 18.324 4.801.379.23.817.281 1.213.177v.001c5.153-1.362 9.526-.586 13.075 1.253 4.595 2.379 7.859 6.534 9.671 10.177-2.387 6.478-3.415 13.294-4.456 20.193-2.249 14.906-4.56 30.222-21.243 42.322-.7.507-.857 1.486-.35 2.186s1.487.855 2.186.348c17.748-12.873 20.158-28.846 22.504-44.391 1.05-6.956 2.087-13.824 4.523-20.173l-.002-.001c.145-.38.143-.815-.041-1.212-1.978-4.273-5.808-9.354-11.359-12.229-4.028-2.086-8.936-3.015-14.662-1.658-5.799-3.356-12.99-4.924-19.383-4.916-6.565.008-12.389 1.71-15.246 4.873-.42-.098-.85-.192-1.291-.284-6.44-1.343-11.876-1.152-16.061.611-4.354 1.834-7.314 5.296-8.617 10.423v.007c-.067.265-.137.561-.205.893h.002c-.023.111-.034.225-.033.342 1.004 58.451 21.513 68.69 21.572 68.721M124.9551 133.791c-.861-.037-1.59.632-1.627 1.493-.011.233.03.455.113.657-2.18-.308-4.685-.435-7.168-.067-.855.125-1.447.92-1.322 1.775.125.856.92 1.448 1.775 1.323 6.002-.889 12.223 1.517 12.241 1.524v-.001c.39.146.84.135 1.242-.066.771-.386 1.084-1.324.698-2.094-.007-.012-2.161-4.369-5.952-4.544" fill="#5c5c5b" fill-rule="evenodd"/>
    <path d="M73.0107 168.6133l-24.035 4.65s-13.98-15.172-8.545-42.335c0 0 12.866-8.118 36.651-.889 0 0-6.799 19.006-4.071 38.574" fill="#ee751e" fill-rule="evenodd"/>
    <path d="M47.8125 174.3096c.578.643 1.567.694 2.209.117.643-.578.695-1.567.117-2.21-.037-.042-13.209-14.34-8.305-40.283 2.625-1.366 13.992-6.277 33.262-.848-1.549 4.977-5.947 21.136-3.634 37.743.119.854.909 1.452 1.763 1.334.856-.119 1.453-.909 1.335-1.763-2.675-19.192 3.979-37.793 3.997-37.846l-.001-.001.021-.06c.25-.826-.217-1.698-1.041-1.948-23.313-7.084-36.59.263-37.825.992-.408.211-.72.6-.816 1.085-5.59 27.939 8.877 43.643 8.918 43.688" fill="#5c5c5b" fill-rule="evenodd"/>
    <path d="M72.1172 169.8994c.71.493 1.686.317 2.18-.393.492-.71.317-1.685-.393-2.178l-16.826-11.704c-.711-.494-1.687-.318-2.18.391-.494.71-.318 1.687.393 2.18z" fill="#5c5c5b" fill-rule="evenodd"/>
    <path d="M48.9756 173.2637l7.208-16.354s-7.053 5.866-7.208 16.354" fill="#ee751e" fill-rule="evenodd"/>
    <path d="M57.1934 158.1035c.659-.558.742-1.545.184-2.204-.557-.658-1.544-.741-2.204-.184-.021.019-7.592 6.317-7.759 17.53-.01.862.681 1.569 1.543 1.579.862.009 1.57-.681 1.58-1.542.144-9.764 6.638-15.164 6.656-15.179" fill="#5c5c5b" fill-rule="evenodd"/>
    <path d="M86.0068 182.1016l5.139 14.627c8.581-3.187 3.542-16.644-5.139-14.627" fill="#f4cec5" fill-rule="evenodd"/>
    <path d="M90.6006 195.2656c-.808.301-1.219 1.2-.918 2.008.301.808 1.2 1.219 2.008.918 3.425-1.272 5.086-3.892 5.402-6.764.149-1.349-.013-2.752-.437-4.087-.419-1.316-1.099-2.571-1.99-3.64-2.067-2.481-5.252-3.996-9.007-3.123-.842.192-1.369 1.032-1.176 1.874.192.84 1.031 1.367 1.873 1.174 2.454-.569 4.547.432 5.912 2.07.632.759 1.114 1.651 1.412 2.588.293.92.404 1.882.304 2.801-.195 1.766-1.235 3.383-3.383 4.181" fill="#5c5c5b" fill-rule="evenodd"/>
    <path d="M61.1953 219.8623c.012.012.026.03.037.04 1.943-8.353 10.902-13.162 18.635-8.557-2.041-10.266 10.369-16.436 12.599-8.593-4.877-16.829-8.229-35.245-32.583-32.576-32.104 3.511-29.754 29.432-26.587 38.824 8.428-4.442 22.694 3.589 27.899 10.862" fill="#f4cec5" fill-rule="evenodd"/>
    <path d="M61.749 215.2471c-.384.645-.723 1.321-1.013 2.027-3.192-3.556-8.149-7.036-13.302-9.042-4.594-1.788-9.388-2.427-13.342-.974-.432-1.55-.815-3.418-1.04-5.482-.519-4.747-.206-10.498 2.245-15.715 2.431-5.176 7.004-9.864 15.027-12.57 2.793-.942 6.006-1.646 9.693-2.049 20.937-2.295 25.645 11.974 29.828 26.739-.234-.071-.473-.126-.718-.167-1.099-.185-2.279-.062-3.44.331-1.105.374-2.207 1.001-3.208 1.842-2.35 1.977-4.147 5.153-4.112 9.012-.613-.24-1.23-.43-1.847-.573l.001-.002c-2.945-.685-5.884-.307-8.47.888-2.566 1.184-4.781 3.176-6.302 5.73zm-1.485 5.477l.011.012-.001.001.017.018 1.631 1.804.551-2.368c.309-1.331.808-2.556 1.457-3.644l.002.001c1.255-2.11 3.08-3.752 5.185-4.725 2.086-.963 4.455-1.268 6.826-.718h.004c1.096.255 2.195.693 3.268 1.332l2.461 1.466-.558-2.802c-.776-3.902.796-7.122 2.995-8.97.748-.628 1.569-1.097 2.392-1.375.768-.26 1.526-.346 2.204-.232 1.126.19 2.083.999 2.531 2.577l.004-.001.002.006 2.445-.702c-.024-.089-.05-.177-.078-.261-.24-.835-.574-2.023-.905-3.194-4.595-16.303-9.199-32.642-32.96-30.038-3.873.423-7.266 1.168-10.232 2.168-8.786 2.964-13.82 8.155-16.522 13.907-2.683 5.711-3.033 11.94-2.474 17.059.317 2.897.927 5.452 1.57 7.358l.478 1.418 1.321-.695c3.457-1.821 8.107-1.281 12.628.478 5.602 2.181 10.926 6.203 13.641 9.996l.036.049z" fill="#5c5c5b" fill-rule="evenodd"/>
    <path d="M58.4277 176.9326c-.268 0-.54.013-.812.037-2.293.214-4.363 1.307-5.83 3.076-1.465 1.768-2.153 3.997-1.936 6.281 0 .01.002.019.003.03 2.716-.992 5.552-1.631 8.452-1.903 1.051-.097 2.111-.148 3.157-.148 1.849 0 3.695.154 5.513.456-.002-.013-.003-.024-.004-.037-.412-4.439-4.085-7.792-8.543-7.792" fill="#fff" fill-rule="evenodd"/>
    <path d="M48.6895 188.5049c-.207-.647-.335-1.33-.4-2.031-.528-5.587 3.584-10.543 9.179-11.064.323-.03.642-.045.959-.045 5.186 0 9.616 3.952 10.105 9.222.061.704.057 1.397-.022 2.072-2.275-.515-4.635-.785-7.049-.785-.995 0-1.999.046-3.01.139-3.457.325-6.737 1.187-9.762 2.492m2.818-4.341c2.164-.633 4.391-1.059 6.655-1.271 1.095-.102 2.205-.154 3.299-.154 1.165 0 2.327.059 3.482.173-1.035-2.615-3.565-4.412-6.516-4.412-.22 0-.445.01-.669.031-1.874.175-3.567 1.068-4.766 2.516-.759.915-1.263 1.982-1.485 3.117" fill="#5c5c5b" fill-rule="evenodd"/>
    <path d="M64.5781 239.1533s5.834 20.368 4.041 32.321l7.385-10.865 8.424 13.481-2.221-14.268s10.662 6.285 14.56 7.329c-5.492-8.571-13.041-23.953-14.63-29.405-4.339.155-7.87.196-9.991-2.225 0 0-1.853 4.748-7.568 3.632" fill="#ee751e" fill-rule="evenodd"/>
    <path d="M70.5215 265.9014c-.082-9.309-2.678-20.419-3.859-25.016 2.974-.119 4.825-1.692 5.859-3.003 1.035.661 2.225 1.047 3.544 1.26 1.503.243 3.155.252 4.946.202 1.06 3.063 3.225 7.909 5.759 13.003 1.943 3.906 4.116 7.986 6.185 11.543-4.434-2.158-9.937-5.402-9.958-5.415v.001c-.3-.176-.66-.254-1.029-.196-.851.132-1.435.93-1.303 1.781l1.047 6.732-4.38-7.01-.004.002c-.112-.181-.262-.341-.45-.468-.712-.483-1.683-.297-2.167.416zm-7.431-26.26c.356 1.263 5.667 20.356 3.98 31.607-.125.855.468 1.65 1.322 1.775.658.096 1.281-.232 1.59-.778l5.965-8.777 7.152 11.448c.457.733 1.422.958 2.155.502.581-.362.843-1.042.7-1.674l-1.704-10.95c3.503 1.972 9.347 5.128 12.113 5.869.834.223 1.692-.273 1.916-1.108.123-.462.026-.93-.226-1.295-2.639-4.127-5.774-9.872-8.479-15.309-2.824-5.677-5.157-10.959-5.938-13.641-.203-.701-.855-1.15-1.554-1.126-2.088.075-3.977.123-5.528-.127-1.343-.217-2.447-.668-3.232-1.564-.569-.65-1.555-.715-2.203-.148-.192.169-.333.373-.422.595l-.001-.001c-.003.01-1.382 3.544-5.819 2.677-.848-.165-1.67.389-1.836 1.237-.053.273-.032.542.049.788M36.707 222.6455c.751-.429 1.012-1.386.582-2.137-.43-.75-1.387-1.01-2.137-.581-1.119.644-2.084.508-2.778-.068-.714-.594-1.237-1.6-1.472-2.766-.246-1.223-.165-2.589.346-3.828.878-2.133 3.113-4.2 7.262-4.265.861-.009 1.544-.425 1.533-1.288-.01-.861-.595-1.205-1.457-1.195-5.666.087-8.92 2.384-10.228 5.561-.755 1.832-.878 3.838-.516 5.628.372 1.846 1.27 3.5 2.537 4.552 1.678 1.395 3.892 1.786 6.328.387" fill="#5c5c5b" fill-rule="evenodd"/>
    <path d="M87.7324 94.5283c-.498 1.454-1.553 2.513-3.016 3.007-.591.203-.591.417 0 .619 1.463.493 2.518 1.555 3.016 3.004.197.599.41.599.613 0 .494-1.449 1.555-2.511 3.006-3.004.598-.202.598-.416 0-.619-1.451-.494-2.512-1.553-3.006-3.009-.203-.592-.416-.592-.613.002M87.6133 68.0059c.229 1.22-.101 2.385-.928 3.303-.338.377-.254.53.244.434 1.217-.228 2.379.105 3.309.93.371.343.521.253.424-.243-.222-1.22.105-2.38.934-3.304.341-.376.258-.527-.245-.432-1.217.228-2.381-.104-3.302-.931-.377-.339-.53-.253-.436.243M45.832 108.2227c-1.406 1.071-3.1 1.407-4.812.944-.694-.19-.834.017-.395.592 1.076 1.406 1.407 3.101.944 4.811-.188.696.015.834.589.394 1.41-1.076 3.106-1.41 4.813-.945.704.189.836-.014.4-.594-1.078-1.398-1.412-3.098-.95-4.81.192-.695-.013-.83-.589-.392M36.3076 87.5859c-.855.654-1.884.857-2.926.574-.427-.114-.511.014-.245.363.66.857.861 1.886.578 2.925-.113.43.012.514.36.245.859-.652 1.888-.861 2.927-.58.428.121.51-.003.243-.359-.653-.854-.858-1.883-.577-2.927.118-.428-.008-.508-.36-.241M50.3828 95.792c-.856.653-1.885.854-2.934.573-.423-.114-.504.012-.237.363.655.857.853 1.886.571 2.926-.108.428.013.509.366.242.855-.652 1.885-.857 2.927-.577.424.119.506-.008.243-.359-.659-.854-.861-1.884-.575-2.93.11-.425-.009-.508-.361-.238M71.4375 109.4629c-.299 1.039-1.004 1.819-2.006 2.216-.412.158-.402.309.022.431 1.033.295 1.811.999 2.207 2.005.166.412.318.405.437-.024.297-1.036.998-1.814 2.002-2.21.41-.159.401-.311-.021-.433-1.038-.295-1.813-1.002-2.213-2.005-.161-.411-.314-.4-.428.02" fill="#fff" fill-rule="evenodd"/>
    <g clip-path="url(#b)">
      <path d="M43.4385 186.168c1.587.157 2.567 1.141.796 3.099-1.58 1.735-7.147 1.923-5.103-1.433.74-1.218 2.796-1.817 4.307-1.666" fill="#f4cec5" fill-rule="evenodd"/>
    </g>
    <g clip-path="url(#c)">
      <path d="M75.0469 180.5625c1.545.396 2.367 1.521.311 3.183-1.823 1.472-7.352.797-4.823-2.2.918-1.095 3.049-1.366 4.512-.983" fill="#f4cec5" fill-rule="evenodd"/>
    </g>
    <path d="M75.8613 198.2891c-.965 2.591-3.854 3.914-6.442 2.947-2.599-.967-3.917-3.852-2.954-6.445.968-2.594 3.851-3.914 6.452-2.95 2.59.966 3.911 3.849 2.944 6.448" fill="#fff" fill-rule="evenodd"/>
    <path d="M69.4189 201.2363c.097.036.197.046.287.075 1.406-.456 2.603-1.505 3.158-2.996.962-2.595-.363-5.481-2.958-6.441-.091-.038-.193-.053-.29-.081-1.403.461-2.596 1.506-3.15 2.998-.964 2.592.354 5.478 2.953 6.445" fill="#5c5c5b" fill-rule="evenodd"/>
    <path d="M50.8496 201.0791c-.959 2.594-3.844 3.919-6.441 2.949-2.592-.961-3.918-3.846-2.953-6.442.962-2.596 3.852-3.92 6.443-2.947 2.598.961 3.92 3.846 2.951 6.44" fill="#fff" fill-rule="evenodd"/>
    <path d="M44.4082 204.0283c.098.04.197.052.296.08 1.394-.458 2.591-1.509 3.149-2.998.964-2.594-.36-5.48-2.953-6.445-.099-.038-.196-.045-.293-.077-1.405.46-2.593 1.506-3.151 2.998-.966 2.595.36 5.481 2.952 6.442" fill="#5c5c5b" fill-rule="evenodd"/>
    <path d="M12.5537 208.8721c-10.089-.62-11.7-12.222-10.572-20.213.798-5.64 6.304-24.471 15.558-16.729 5.618 4.696 6.75 13.755 6.271 20.688-.425 6.163-3.467 16.733-11.257 16.254" fill="#ee751e" fill-rule="evenodd"/>
    <path d="M11.3477 210.3203c.36.052.732.089 1.113.112 3.897.24 6.766-1.777 8.812-4.732 2.622-3.787 3.838-9.184 4.098-12.978.278-4.015.03-8.735-1.263-13.005-1.061-3.499-2.822-6.695-5.565-8.988-1.072-.896-2.126-1.497-3.155-1.842-2.604-.873-4.894-.143-6.867 1.526-1.749 1.478-3.216 3.719-4.4 6.172-2.075 4.294-3.332 9.338-3.688 11.86-.117.832-.207 1.703-.262 2.598-.241 3.921.187 8.298 1.782 11.888 1.692 3.804 4.642 6.719 9.395 7.389m1.298-3.01c-.298-.017-.587-.048-.869-.087-3.503-.494-5.697-2.686-6.97-5.553-1.369-3.079-1.729-6.941-1.514-10.444.049-.807.131-1.597.237-2.352.328-2.315 1.487-6.957 3.407-10.93 1.013-2.097 2.223-3.978 3.604-5.144 1.156-.977 2.45-1.42 3.855-.95.661.221 1.374.637 2.14 1.279 2.234 1.867 3.689 4.54 4.584 7.495 1.167 3.851 1.386 8.179 1.13 11.889-.233 3.381-1.289 8.149-3.548 11.411-1.458 2.106-3.444 3.547-6.056 3.386" fill="#5c5c5b" fill-rule="evenodd"/>
    <path d="M16.168 170.4658l-2.525-.77c-2.323-4.985-.112-26.365 4.785-29.981 8.306.556-.588 27.187-2.26 30.751" fill="#ee751e" fill-rule="evenodd"/>
    <path d="M15.0732 169.0586l-.011-.023c-1.134-2.434-1.021-9.511.033-16.119.805-5.045 2.123-9.693 3.791-11.515l.025.011c.536.251.905.917 1.142 1.865.31 1.232.366 2.845.244 4.665-.496 7.428-3.86 17.73-5.224 21.116m-2.851 1.299c.366.784 1.297 1.124 2.081.759.134-.063.255-.141.361-.232.118.423.413.794.843.995.78.366 1.71.029 2.075-.753 1.102-2.351 5.269-14.478 5.838-22.975.14-2.129.064-4.067-.33-5.633-.465-1.852-1.371-3.237-2.857-3.934-.517-.242-1.085-.389-1.702-.431v.003c-.357-.025-.725.073-1.034.303-2.616 1.933-4.497 7.756-5.487 13.967-1.139 7.133-1.161 14.986.212 17.931" fill="#5c5c5b" fill-rule="evenodd"/>
    <path d="M22.2461 157.9219c.709 1.61 2.493 4.692-.088 6.983-1.125 1.002-5.215 1.591-6.105.227-1.266-1.936 4.39-6.436 6.193-7.21" fill="#f4cec5" fill-rule="evenodd"/>
    <path d="M21.5254 160.1758c.445 1.187.694 2.588-.402 3.561l-.003.002-.003-.002-.037.03c-.45.294-1.35.523-2.262.585-.633.044-1.191.03-1.417-.075.055-.237.552-.846 1.192-1.549.863-.947 1.981-1.879 2.932-2.552m2.354-2.442c-.057-.122-.109-.233-.181-.396l-.015-.035c-.342-.794-1.262-1.161-2.056-.82-.368.158-.835.421-1.35.756-1.207.79-2.799 2.069-3.998 3.383-1.484 1.629-2.41 3.434-1.754 4.962l.002-.002.004.008c.062.145.133.279.212.398l.003-.001c.039.06.082.12.129.179.033.048.07.093.109.138.859.965 2.46 1.278 4.042 1.17 1.396-.095 2.888-.52 3.755-1.087.163-.106.304-.21.418-.313l-.003-.002c3.216-2.858 1.648-6.249.683-8.338" fill="#5c5c5b" fill-rule="evenodd"/>
    <path d="M13.3457 154.0684l-4.055-2.12c-2.763 3.143-3.592 5.244-3.466 8.037.146 3.423 1.91 6.706 4.642 8.674 1.218.879 4.445 2.333 5.538.474 1.034-1.748-1.096-4.475-1.582-6.088-.153-.505-.216-1.046-.309-1.567-.165-.889-1.402-2.015-.768-7.41" fill="#f4cec5" fill-rule="evenodd"/>
    <path d="M10.4668 152.9824c.57-.648.508-1.639-.141-2.21s-1.638-.508-2.21.142c-1.489 1.692-2.471 3.137-3.081 4.578-.635 1.501-.845 2.935-.772 4.559l.001.019c.086 1.941.629 3.839 1.531 5.528.912 1.703 2.197 3.202 3.76 4.327.18.13.394.27.631.41.83.487 2.004 1.002 3.146 1.186 1.467.236 2.906-.028 3.842-1.326.082-.114.147-.208.184-.273.015-.027.031-.054.045-.082 1.084-1.948.037-4.056-.86-5.858-.267-.539-.516-1.04-.621-1.385l-.029-.092c-.067-.246-.117-.557-.167-.865l-.009-.05c-.018-.103-.037-.216-.066-.387l-.002-.005.002-.001c-.068-.363-.177-.625-.312-.949-.326-.784-.892-2.144-.437-6.003.097-.859-.519-1.634-1.378-1.733-.859-.097-1.635.52-1.733 1.378-.547 4.658.218 6.497.658 7.558.071.167.126.302.128.312l.001-.001.055.331.008.052c.064.397.129.796.253 1.235.009.038.018.076.03.114.176.588.484 1.208.816 1.875.549 1.107 1.194 2.403.936 2.938l-.023.039c-.024.04.001.008-.012.028-.096.131-.426.129-.819.065-.714-.115-1.492-.463-2.057-.795-.148-.087-.278-.172-.386-.25-1.172-.844-2.139-1.973-2.828-3.263-.688-1.284-1.1-2.722-1.165-4.185l-.001-.026c-.053-1.167.09-2.181.527-3.213.463-1.094 1.28-2.272 2.555-3.722" fill="#5c5c5b" fill-rule="evenodd"/>
    <path d="M12.3262 203.167c-6.559-.154-7.295-8.208-6.336-13.818.676-3.955 4.787-17.259 10.613-12.111 3.532 3.128 4.02 9.421 3.516 14.272-.447 4.315-2.729 11.779-7.793 11.657" fill="#fff" fill-rule="evenodd"/>
    <path d="M11.0957 204.1074c.373.063.775.103 1.205.112 2.542.062 4.461-1.409 5.861-3.505 1.798-2.69 2.733-6.461 3.005-9.098.29-2.804.261-6.082-.461-9.014-.594-2.416-1.663-4.609-3.405-6.152-.635-.562-1.267-.945-1.889-1.172-1.679-.614-3.193-.137-4.527.994-1.167.989-2.179 2.5-3.021 4.174-1.577 3.127-2.6 6.894-2.914 8.724-.192 1.127-.319 2.36-.348 3.62-.058 2.454.264 4.99 1.2 7.039 1.004 2.195 2.683 3.832 5.294 4.278m1.256-1.992c-.307-.008-.608-.038-.901-.087-1.822-.312-3.009-1.489-3.734-3.074-.791-1.732-1.061-3.944-1.011-6.115.027-1.133.145-2.263.325-3.313.291-1.706 1.246-5.216 2.714-8.132.728-1.444 1.573-2.724 2.501-3.513.764-.647 1.59-.935 2.448-.622.381.139.786.39 1.213.767 1.384 1.227 2.251 3.045 2.751 5.08.659 2.67.682 5.695.413 8.296-.247 2.386-1.077 5.773-2.659 8.141-1.025 1.534-2.369 2.612-4.06 2.572" fill="#5c5c5b" fill-rule="evenodd"/>
    <path d="M11.4902 201.8242c-.162.559.16 1.143.718 1.305.558.161 1.142-.16 1.303-.719 1.034-3.558 1.676-8.611 1.122-13.25-.442-3.685-1.639-7.14-3.987-9.478-.413-.41-1.08-.408-1.49.004-.41.412-.408 1.08.004 1.491 1.968 1.959 2.985 4.973 3.375 8.23.521 4.354-.079 9.089-1.045 12.417" fill="#5c5c5b" fill-rule="evenodd"/>
    <g>
      <path d="M5.6484 190.7363c-.582 0-1.056.474-1.056 1.057 0 .584.474 1.056 1.056 1.056.148 0 .721.313 1.441.785.703.462 1.461 1.059 2.05 1.68.402.421 1.069.439 1.489.037.178-.17.285-.386.317-.611l.041-.251c.59-3.617 1.112-6.82-3.738-9.284-.52-.262-1.153-.053-1.415.466s-.053 1.153.465 1.416c2.782 1.412 3.075 3.291 2.846 5.426-.301-.228-.604-.443-.899-.636-1.046-.687-2.074-1.141-2.597-1.141" fill="#5c5c5b" fill-rule="evenodd"/>
    </g>
    <g>
      <path d="M106.9707 144.1074c2.55-1.541 5.28-3.026 8.07-4.307.659-.302 1.321-.593 1.983-.871 5.908-.768 11.926 1.561 11.943 1.567v-.001c.391.146.84.135 1.242-.067.772-.384 1.084-1.322.699-2.093-.003-.007-.652-1.318-1.861-2.53.988-.055 1.952-.044 2.885.043.859.078 1.619-.554 1.696-1.413l.001-.013h.006c.129-1.523.032-2.897-.256-4.121-.512-2.173-1.621-3.855-3.142-5.048-1.494-1.17-3.356-1.84-5.412-2.015-.875-.074-1.787-.059-2.721.045-.079-2.574-.763-4.164-2.863-3.976-1.526.136-3.895 2.176-7.752 7.133-4.431 1.402-8.468 2.968-12.132 4.621-3.609-3.374-8.085-5.831-12.665-6.96-.145-.036-.292-.071-.443-.106 10.37-11.359 12.337-24.363 14.255-37.08 1.05-6.956 2.087-13.825 4.524-20.174l-.002-.001c.144-.379.142-.814-.041-1.212-.898-1.939-2.177-4.043-3.825-6.033 1.808-5.415 3.435-11.036 5.046-16.904.471-1.717.759-3.425 1.046-5.133.453-2.695.906-5.392 2.016-7.617l-.006-.003c.922-1.849 1.104-7.749.522-13.194-.487-4.568-1.524-9-3.131-10.824l-.004.004-.004-.004c-1.41-1.596-3.029-2.469-4.688-3.364-.298-.161-.601-.325-.973-.534l-.03-.017-.423-.242-.003.006c-1.877-1.082-3.953-2.275-6.135-1.032-3.416 1.933-3.076 6.862-2.86 10.017l.005.069.009.123c.415 6.032.832 12.096-.107 17.627-.559 3.29-1.315 6.737-2.279 10.12-.864 3.035-1.888 5.99-3.077 8.698-.57 1.296-1.177 2.532-1.816 3.713-1.682-.001-3.449.198-5.305.637-5.799-3.356-12.989-4.924-19.383-4.916-.399 0-.795.008-1.189.021-.207-4.354-.527-8.708-1.072-13.074-.235-1.869-.087-3.942.062-6.032.256-3.608.516-7.262-.942-10.714-1.142-2.695-2.542-5.101-4.151-7.415-1.581-2.272-3.377-4.476-5.333-6.79l-.004.004c-1.038-1.23-2.053-1.844-3.297-2.057-1.099-.191-2.219-.02-3.657.31-.747.171-1.712.175-2.665.179-2.698.01-5.347.02-6.658 2.684-.621 1.263-.623 2.593-.331 3.873.253 1.113.706 2.13 1.132 3.002l.002-.002c1.038 2.133 2.492 4.008 3.942 5.88 1.127 1.453 2.253 2.906 3.094 4.389 3.522 6.219 1.559 17.925-.071 27.645-.111.656-.219 1.303-.325 1.94-4.32-.384-8.064.064-11.134 1.357-4.355 1.834-7.315 5.297-8.617 10.424v.006c-.068.265-.137.562-.206.894h.002c-.022.11-.034.225-.033.342.871 50.709 16.42 65.129 20.564 68.079-.708 3.843-1.035 7.448-1.077 10.806-4.475-5.581-8.754-9.022-12.311-11.086-2.582-1.499-4.815-2.289-6.49-2.649-1.983-.427-3.475-.215-4.057.166l.003.005-.003.002c-.25.164-.443.366-.581.603l.001.001-.008.012c-.158.278-2.275 5.899-3.72 11.821-.76 3.111-1.354 6.356-1.422 9.054-.328.056-.642.217-.885.478-.471.454-.922.894-1.174 1.228-.031.039-.061.08-.09.123-.203.313-.392.635-.564.964-.541.789-.961 1.542-1.28 2.294-.635 1.502-.845 2.936-.772 4.56l.001.019c.086 1.94.629 3.839 1.531 5.527.873 1.631 2.087 3.073 3.56 4.181-.284.192-.562.404-.834.634-1.749 1.478-3.216 3.719-4.4 6.172-2.075 4.293-3.332 9.338-3.688 11.86-.117.832-.207 1.704-.262 2.599-.241 3.919.187 8.296 1.782 11.887 1.692 3.804 4.642 6.719 9.395 7.39.36.051.732.089 1.113.111 3.897.24 6.766-1.777 8.812-4.732 2.622-3.787 3.838-9.184 4.098-12.978.278-4.015.03-8.735-1.263-13.005-1.061-3.499-2.823-6.695-5.565-8.987-.197-.166-.396-.322-.593-.468.278-.694.628-1.646 1.02-2.785l.057-.003c1.396-.096 2.887-.52 3.755-1.087.163-.106.303-.211.418-.312l-.003-.004c3.215-2.858 1.648-6.247.682-8.338-.056-.122-.108-.231-.18-.396l-.015-.034c-.271-.631-.906-.992-1.555-.944.209-.933.403-1.868.574-2.795 4.149 5.14 13.985 16.213 23.516 18.707l.055.076c-6.814 3.058-10.93 7.636-13.28 12.639-2.491 5.303-2.97 11.05-2.58 15.942-.162.693-.273 1.224-.476 1.275l-.077.02c-6.417 1.594-9.884 5.766-11.019 10.818-.603 2.687-.529 5.612.124 8.505.646 2.862 1.857 5.701 3.532 8.253 3.958 6.032 10.528 10.54 18.461 10.164 2.074 5.138 6.972 9.307 12.464 11.522 2.216.894 4.546 1.476 6.838 1.68 1.988.176 3.948.066 5.781-.372 1.064 6.1 1.825 13.149 1.029 18.455-.125.855.467 1.65 1.322 1.775.658.096 1.281-.232 1.59-.778l5.965-8.776 7.152 11.448c.457.733 1.422.958 2.155.502.581-.363.843-1.043.699-1.675l-1.704-10.95c3.504 1.972 9.348 5.128 12.114 5.87.834.222 1.692-.274 1.916-1.109.123-.461.026-.929-.226-1.294-2.64-4.128-5.774-9.873-8.479-15.31-.581-1.166-1.14-2.317-1.67-3.431.879-.19 1.748-.434 2.595-.733 1.8-.634 3.524-1.517 5.091-2.644 1.567-1.132 3.052-2.568 4.237-4.21 1.09-1.508 1.934-3.195 2.368-4.988l.015-.079c.559-2.389.356-4.622.151-6.863-.229-2.507-.459-5.028.578-7.491 1.014-2.406 2.494-4.654 3.976-6.907 1.41-2.145 2.827-4.297 3.91-6.621.014-.029.026-.058.038-.088 1.322-2.866 2.243-6.166 2.668-9.516.418-3.29.357-6.632-.272-9.666-.814-3.936-2.703-7.478-4.557-10.954-.608-1.14-1.212-2.275-1.753-3.374l-.002-.005.002-.002c-.95-1.927-1.694-3.949-2.102-6.012-.4-2.024-.476-4.085-.097-6.132l.001.001c.271-1.445.688-2.915 1.104-4.387.834-2.942 1.672-5.898 1.547-9.206-.045-1.203-.192-2.384-.432-3.536z" fill="none" stroke="#2b2b2a" stroke-width=".21600001" stroke-miterlimit="22.9260006"/>
    </g>
  </g>
</svg>
