<svg
 xmlns="http://www.w3.org/2000/svg"
 xmlns:xlink="http://www.w3.org/1999/xlink"
 width="23px" height="18px">
<path fill-rule="evenodd"  fill="rgb(58, 170, 227)"
 d="M22.139,2.089 C21.794,2.241 21.438,2.369 21.075,2.474 C21.505,1.992 21.833,1.424 22.033,0.803 C22.078,0.664 22.032,0.511 21.916,0.420 C21.801,0.329 21.641,0.318 21.515,0.393 C20.743,0.847 19.911,1.173 19.039,1.363 C18.159,0.512 16.966,0.027 15.732,0.027 C13.127,0.027 11.008,2.129 11.008,4.713 C11.008,4.917 11.022,5.118 11.047,5.317 C7.815,5.037 4.809,3.460 2.746,0.950 C2.673,0.861 2.559,0.812 2.443,0.821 C2.327,0.831 2.223,0.895 2.164,0.995 C1.746,1.708 1.524,2.522 1.524,3.351 C1.524,4.480 1.930,5.552 2.649,6.389 C2.430,6.313 2.219,6.219 2.016,6.108 C1.908,6.048 1.776,6.049 1.667,6.110 C1.559,6.172 1.492,6.285 1.490,6.408 C1.488,6.429 1.488,6.449 1.488,6.471 C1.488,8.156 2.403,9.673 3.801,10.499 C3.681,10.488 3.561,10.471 3.442,10.448 C3.319,10.425 3.192,10.467 3.109,10.560 C3.026,10.653 2.999,10.783 3.037,10.901 C3.555,12.504 4.886,13.683 6.498,14.042 C5.162,14.872 3.634,15.306 2.031,15.306 C1.696,15.306 1.360,15.287 1.030,15.249 C0.866,15.229 0.710,15.325 0.655,15.479 C0.599,15.633 0.658,15.806 0.797,15.894 C2.857,17.204 5.239,17.897 7.685,17.897 C12.495,17.897 15.504,15.648 17.180,13.760 C19.272,11.407 20.471,8.293 20.471,5.215 C20.471,5.086 20.469,4.957 20.465,4.828 C21.291,4.210 22.000,3.465 22.579,2.607 C22.666,2.476 22.657,2.304 22.555,2.185 C22.453,2.064 22.284,2.026 22.139,2.089 Z"/>
</svg>
