<?xml version="1.0" encoding="UTF-8" standalone="no"?>
<svg
   xmlns:dc="http://purl.org/dc/elements/1.1/"
   xmlns:cc="http://creativecommons.org/ns#"
   xmlns:rdf="http://www.w3.org/1999/02/22-rdf-syntax-ns#"
   xmlns:svg="http://www.w3.org/2000/svg"
   xmlns="http://www.w3.org/2000/svg"
   viewBox="0 0 178.39867 367.68399"
   height="367.68399"
   width="178.39867"
   xml:space="preserve"
   id="svg2"
   version="1.1"><metadata
     id="metadata8"><rdf:RDF><cc:Work
         rdf:about=""><dc:format>image/svg+xml</dc:format><dc:type
           rdf:resource="http://purl.org/dc/dcmitype/StillImage" /></cc:Work></rdf:RDF></metadata><defs
     id="defs6"><clipPath
       id="clipPath18"
       clipPathUnits="userSpaceOnUse"><path
         id="path16"
         d="M 0,275.763 H 133.799 V 0 H 0 Z" /></clipPath><clipPath
       id="clipPath170"
       clipPathUnits="userSpaceOnUse"><path
         id="path168"
         d="m 38.6865,190.489 h 6.4932 v -4.344 h -6.4932 z" /></clipPath><clipPath
       id="clipPath186"
       clipPathUnits="userSpaceOnUse"><path
         id="path184"
         d="m 69.8838,184.496 h 6.7012 v -4.098 h -6.7012 z" /></clipPath></defs><g
     transform="matrix(1.3333333,0,0,-1.3333333,0,367.684)"
     id="g10"><g
       id="g12"><g
         clip-path="url(#clipPath18)"
         id="g14"><g
           transform="translate(30.3105,203.7207)"
           id="g20"><path
             id="path22"
             style="fill:#ffd600;fill-opacity:1;fill-rule:evenodd;stroke:none"
             d="m 0,0 c -19.865,4.847 -8.346,36.802 11.717,34.591 3.846,12.464 26.274,19.645 31.804,5.94 -0.463,1.148 9.872,2.228 10.809,2.157 3.575,-0.247 7.119,-1.434 10.038,-3.533 2.736,-1.975 5.19,-4.954 5.997,-8.298 1.178,-4.905 -1.303,-9.612 0.824,-14.671 2.032,-4.813 5.68,-8.808 7.907,-13.583 2.52,-5.419 3.527,-12.48 2.323,-18.297 -1.03,-4.976 -3.972,-9.459 -6.182,-13.954 -2.016,-4.1 -3.171,-8.606 -2.332,-13.124 0.824,-4.399 2.802,-8.571 2.626,-13.249 -0.404,-10.793 -9.717,-19.663 -19.523,-22.08 -7.149,-1.765 -20.973,-2.706 -24.834,5.408 -4.574,9.583 -0.508,21.904 -1.959,32.117 -0.618,4.356 -2.084,8.643 -4.352,12.42 -2.295,3.817 -4.56,5.199 -8.238,7.208 -3.802,2.076 -7.074,6.225 -9.732,9.574 C 5.427,-9.541 4.069,-7.616 2.855,-5.602 2.422,-4.88 0.57,-0.141 0,0" /></g><g
           transform="translate(75.2686,243.6377)"
           id="g24"><path
             id="path26"
             style="fill:#5c5c5b;fill-opacity:1;fill-rule:evenodd;stroke:none"
             d="m 0,0 c 0.001,-0.034 0.002,-0.063 0.004,-0.088 l -0.019,0.056 z m -45.408,-41.414 c -6.417,1.594 -9.884,5.766 -11.019,10.817 -0.603,2.688 -0.529,5.612 0.124,8.505 0.646,2.863 1.857,5.701 3.532,8.253 3.958,6.031 10.528,10.54 18.461,10.165 2.074,5.138 6.972,9.307 12.464,11.522 2.216,0.894 4.546,1.476 6.838,1.679 2.327,0.206 4.613,0.021 6.706,-0.625 3.108,-0.958 5.774,-2.902 7.522,-6.04 0.679,0.213 1.549,0.409 2.489,0.581 3.068,0.563 7.168,0.935 7.78,0.89 L 9.537,4.328 c 1.934,-0.139 3.859,-0.533 5.694,-1.179 1.8,-0.633 3.524,-1.516 5.091,-2.643 1.567,-1.132 3.052,-2.569 4.238,-4.21 1.089,-1.509 1.933,-3.196 2.367,-4.988 l 0.015,-0.079 c 0.559,-2.39 0.356,-4.624 0.151,-6.865 -0.229,-2.507 -0.459,-5.027 0.578,-7.49 1.015,-2.406 2.494,-4.653 3.976,-6.907 1.411,-2.145 2.828,-4.296 3.911,-6.62 0.013,-0.03 0.025,-0.059 0.037,-0.088 1.322,-2.866 2.243,-6.167 2.668,-9.517 0.418,-3.289 0.357,-6.632 -0.272,-9.666 -0.814,-3.935 -2.703,-7.478 -4.556,-10.953 -0.609,-1.142 -1.213,-2.275 -1.754,-3.375 l -0.002,-0.004 0.002,-0.002 c -0.95,-1.928 -1.694,-3.949 -2.102,-6.013 -0.4,-2.024 -0.475,-4.084 -0.097,-6.131 h 0.001 c 0.271,-1.445 0.688,-2.914 1.104,-4.386 0.834,-2.942 1.672,-5.899 1.547,-9.206 -0.207,-5.549 -2.59,-10.607 -6.164,-14.649 -3.862,-4.367 -9.133,-7.559 -14.547,-8.893 -4.351,-1.074 -11.095,-1.853 -16.776,-0.615 -4.283,0.932 -8.001,2.992 -9.845,6.868 -2.969,6.219 -2.524,13.305 -2.084,20.305 0.267,4.242 0.531,8.452 -0.01,12.264 l -0.006,0.047 c -0.299,2.086 -0.801,4.153 -1.5,6.148 -0.688,1.966 -1.57,3.866 -2.638,5.643 -1.04,1.731 -2.069,2.906 -3.251,3.873 -1.227,1.003 -2.64,1.81 -4.394,2.766 -4.05,2.213 -7.402,6.437 -10.133,9.878 l -0.076,0.094 c -0.025,0.033 -0.049,0.066 -0.072,0.099 -0.744,0.935 -1.455,1.883 -2.126,2.843 -0.708,1.013 -1.364,2.013 -1.955,2.996 -0.025,0.041 -0.047,0.083 -0.068,0.125 -0.199,0.363 -0.474,0.986 -0.796,1.715 -0.59,1.338 -0.662,2.962 -1.024,3.051 z m 0.887,2.996 c 0.418,-0.121 0.75,-0.405 0.942,-0.767 0.787,-0.982 1.535,-2.678 2.137,-4.041 0.296,-0.67 0.548,-1.243 0.652,-1.442 l 0.027,-0.043 c 0.604,-1.001 1.215,-1.942 1.833,-2.825 0.649,-0.927 1.32,-1.824 2.009,-2.69 0.027,-0.029 0.054,-0.06 0.08,-0.092 l 0.074,-0.095 c 2.559,-3.223 5.7,-7.181 9.181,-9.081 1.925,-1.052 3.483,-1.942 4.882,-3.085 1.444,-1.181 2.695,-2.607 3.949,-4.693 1.178,-1.961 2.151,-4.053 2.908,-6.218 0.767,-2.189 1.317,-4.452 1.645,-6.733 l 0.008,-0.049 c 0.586,-4.128 0.311,-8.498 0.035,-12.901 -0.415,-6.594 -0.834,-13.268 1.789,-18.764 1.359,-2.856 4.275,-4.413 7.679,-5.154 5.16,-1.123 11.354,-0.4 15.368,0.591 4.816,1.187 9.511,4.032 12.955,7.926 3.122,3.531 5.201,7.917 5.381,12.69 0.105,2.808 -0.668,5.535 -1.438,8.251 -0.431,1.528 -0.865,3.053 -1.164,4.655 v 0.006 c -0.459,2.47 -0.376,4.921 0.094,7.302 0.465,2.343 1.305,4.626 2.373,6.796 l 0.002,-0.001 c 0.578,1.176 1.187,2.318 1.801,3.467 1.746,3.276 3.527,6.616 4.25,10.109 0.558,2.697 0.61,5.691 0.234,8.65 -0.383,3.021 -1.215,6.003 -2.41,8.595 l -0.038,0.078 c -1.023,2.195 -2.353,4.215 -3.678,6.23 -1.563,2.376 -3.122,4.745 -4.245,7.408 -1.34,3.184 -1.074,6.092 -0.811,8.984 0.182,1.991 0.364,3.973 -0.08,5.874 l -0.013,0.053 c -0.334,1.38 -0.998,2.7 -1.866,3.9 -0.981,1.358 -2.217,2.553 -3.525,3.499 -1.31,0.94 -2.768,1.684 -4.309,2.226 -1.571,0.554 -3.22,0.892 -4.877,1.01 L 9.257,1.211 C 8.755,1.248 5.114,0.892 2.272,0.37 1.366,0.204 0.567,0.024 0.026,-0.155 0.015,-0.159 0.008,-0.133 0.004,-0.088 l -0.019,0.056 c -0.16,-0.354 -0.451,-0.649 -0.841,-0.805 -0.801,-0.321 -1.711,0.068 -2.032,0.869 -1.273,3.156 -3.576,5.032 -6.333,5.883 -1.702,0.525 -3.585,0.674 -5.517,0.502 -1.969,-0.174 -3.994,-0.684 -5.945,-1.471 -5.091,-2.053 -9.564,-5.96 -11.046,-10.673 -0.194,-0.736 -0.903,-1.24 -1.684,-1.154 -7.16,0.789 -13.16,-3.222 -16.738,-8.671 -1.479,-2.252 -2.541,-4.737 -3.103,-7.225 -0.555,-2.455 -0.624,-4.91 -0.124,-7.134 0.887,-3.945 3.632,-7.213 8.736,-8.476 l 0.058,-0.012 c 0.021,-0.005 0.042,-0.012 0.063,-0.019" /></g><g
           transform="translate(71.165,154.0068)"
           id="g28"><path
             id="path30"
             style="fill:#f4cec5;fill-opacity:1;fill-rule:evenodd;stroke:none"
             d="M 0,0 1.144,14.296 C 9.073,14.333 15.498,4.037 22.11,-1.899 c 6.613,-5.944 25.42,-19.066 38.798,-17.814 0.655,-7.691 -5.059,-10.68 -11.563,-9.147 0.277,-5.235 -0.61,-7.072 -8.089,2.64 C 15.08,-18.05 2.696,-4.116 0,0" /></g><g
           transform="translate(72.3145,166.7422)"
           id="g32"><path
             id="path34"
             style="fill:#5c5c5b;fill-opacity:1;fill-rule:evenodd;stroke:none"
             d="m 0,0 c -0.861,-0.003 -1.564,0.692 -1.566,1.555 -0.004,0.861 0.693,1.563 1.554,1.567 6.434,0.029 11.621,-5.616 16.656,-11.095 1.803,-1.963 3.587,-3.904 5.364,-5.499 3.872,-3.48 12.004,-9.468 20.719,-13.47 5.787,-2.658 11.8,-4.428 16.89,-3.952 0.86,0.079 1.619,-0.555 1.696,-1.414 l 10e-4,-0.012 0.006,10e-4 c 0.129,-1.524 0.033,-2.899 -0.256,-4.121 -0.511,-2.174 -1.621,-3.857 -3.142,-5.049 -1.493,-1.17 -3.356,-1.84 -5.412,-2.015 -0.875,-0.074 -1.786,-0.059 -2.721,0.045 -0.079,-2.574 -0.763,-4.164 -2.863,-3.977 -1.526,0.137 -3.895,2.177 -7.752,7.133 -9.967,3.157 -17.946,7.135 -24.158,11.083 -10.229,6.501 -15.75,12.993 -17.475,15.628 -0.474,0.723 -0.27,1.694 0.453,2.167 0.723,0.473 1.694,0.27 2.166,-0.453 1.6,-2.442 6.775,-8.496 16.531,-14.697 6.115,-3.885 13.998,-7.803 23.881,-10.887 l -0.001,-0.002 c 0.296,-0.093 0.568,-0.273 0.772,-0.537 3.442,-4.469 5.173,-6.264 5.852,-6.324 0.336,-0.03 -0.439,1.044 -0.552,2.535 -0.023,0.178 -0.014,0.363 0.029,0.549 0.195,0.842 1.037,1.365 1.879,1.169 1.294,-0.304 2.547,-0.408 3.701,-0.31 1.463,0.124 2.754,0.574 3.748,1.354 0.965,0.756 1.676,1.853 2.016,3.298 0.119,0.502 0.193,1.048 0.218,1.639 -5.291,-0.071 -11.179,1.726 -16.805,4.309 -9.054,4.157 -17.496,10.373 -21.514,13.984 -1.873,1.682 -3.713,3.684 -5.573,5.708 C 9.766,-5.109 5.049,0.022 0,0" /></g><g
           transform="translate(71.0986,170.4551)"
           id="g36"><path
             id="path38"
             style="fill:#f4cec5;fill-opacity:1;fill-rule:evenodd;stroke:none"
             d="m 0,0 c 1.065,5.118 -10.573,9.82 -15.856,8.604 -5.148,-1.185 -7.53,-6.446 -8.034,-11.278 -0.203,-1.98 -0.372,-3.964 -0.455,-5.948 -0.4,-9.833 3.543,-29.131 17.528,-20.38 C 1.448,-23.825 -1.975,-9.463 0,0" /></g><g
           transform="translate(40.3623,148.9395)"
           id="g40"><path
             id="path42"
             style="fill:#f4cec5;fill-opacity:1;fill-rule:evenodd;stroke:none"
             d="m 0,0 3.5,19.563 -8.176,-3.42 -12.657,-13.461 -6.803,0.809 c -3.002,1.409 -3.886,4.605 -3.455,7.524 0.266,1.796 1.857,5.464 0.41,7.043 -1.797,1.961 -5.066,-1.267 -5.9,-2.842 -1.203,-2.271 -1.223,-5.092 -0.607,-7.529 0.317,-1.246 0.812,-2.462 1.515,-3.541 0.286,-0.448 2.391,-2.26 2.397,-2.536 0.148,-7.477 4.718,-19.853 4.943,-20.248 C -24.287,-19.579 -12.394,-18.9 0,0" /></g><g
           transform="translate(16.8877,153.8447)"
           id="g44"><path
             id="path46"
             style="fill:#5c5c5b;fill-opacity:1;fill-rule:evenodd;stroke:none"
             d="m 0,0 c 0.78,-0.365 1.118,-1.295 0.753,-2.075 -0.365,-0.78 -1.295,-1.118 -2.075,-0.753 -1.763,0.827 -2.949,2.142 -3.656,3.683 -0.778,1.696 -0.959,3.646 -0.687,5.481 0.077,0.522 0.24,1.137 0.417,1.81 0.395,1.498 0.895,3.393 0.394,3.951 l -0.003,-0.003 c -0.04,0.044 -0.075,0.072 -0.101,0.086 -0.111,0.058 -0.32,0.015 -0.57,-0.084 C -5.993,11.91 -6.489,11.551 -6.939,11.138 -7.528,10.599 -8,10.004 -8.223,9.582 -8.685,8.711 -8.934,7.723 -9.017,6.704 -9.112,5.517 -8.981,4.296 -8.698,3.167 h 0.002 C -8.55,2.593 -8.365,2.034 -8.141,1.51 -7.927,1.012 -7.677,0.534 -7.388,0.091 L -7.376,0.07 c 0.061,-0.068 0.461,-0.455 0.875,-0.853 0.855,-0.823 1.744,-1.677 1.76,-2.481 0.049,-2.458 0.613,-5.523 1.338,-8.495 1.16,-4.753 2.685,-9.145 3.218,-10.553 0.26,0.03 0.742,0.114 1.462,0.269 1.41,0.303 3.314,0.983 5.573,2.294 4.279,2.483 9.723,7.173 15.315,15.701 0.473,0.723 1.443,0.926 2.166,0.453 0.724,-0.473 0.927,-1.443 0.453,-2.167 -5.904,-9.006 -11.745,-14.01 -16.367,-16.693 -2.582,-1.498 -4.815,-2.288 -6.49,-2.649 -1.983,-0.426 -3.475,-0.214 -4.057,0.167 l 0.003,0.004 -0.003,0.001 c -0.25,0.164 -0.443,0.367 -0.581,0.605 h 10e-4 l -0.008,0.012 c -0.158,0.278 -2.275,5.9 -3.72,11.822 -0.772,3.155 -1.372,6.447 -1.424,9.168 -0.01,0.497 -0.407,-0.095 -0.805,0.29 -0.5,0.48 -0.985,0.949 -1.252,1.302 -0.031,0.039 -0.06,0.08 -0.09,0.123 -0.392,0.604 -0.728,1.241 -1.009,1.895 -0.298,0.696 -0.535,1.405 -0.715,2.111 h 0.002 l -0.002,0.006 c -0.364,1.443 -0.53,3.01 -0.405,4.547 0.115,1.418 0.475,2.819 1.149,4.09 0.363,0.687 1.081,1.609 1.944,2.4 0.7,0.642 1.52,1.22 2.365,1.558 1.06,0.423 2.158,0.49 3.179,-0.05 0.342,-0.18 0.658,-0.424 0.945,-0.735 L -2.56,14.209 -2.556,14.205 C -0.894,12.392 -1.638,9.574 -2.224,7.35 -2.374,6.779 -2.512,6.259 -2.567,5.883 -2.758,4.597 -2.647,3.265 -2.138,2.153 -1.724,1.253 -1.03,0.483 0,0" /></g><g
           transform="translate(41.8379,148.4316)"
           id="g48"><path
             id="path50"
             style="fill:#5c5c5b;fill-opacity:1;fill-rule:evenodd;stroke:none"
             d="m 0,0 c -0.281,-0.814 -1.169,-1.248 -1.984,-0.967 -0.815,0.28 -1.247,1.168 -0.967,1.984 L 4.724,23.14 c 0.28,0.815 1.169,1.248 1.983,0.967 0.814,-0.281 1.248,-1.169 0.967,-1.983 z" /></g><g
           transform="translate(47.792,172.6064)"
           id="g52"><path
             id="path54"
             style="fill:#5c5c5b;fill-opacity:1;fill-rule:evenodd;stroke:none"
             d="M 0,0 C 0.852,0.135 1.652,-0.446 1.787,-1.298 1.923,-2.149 1.341,-2.95 0.489,-3.086 -11.166,-4.935 -24.571,-23.478 -24.61,-23.53 c -0.511,-0.697 -1.489,-0.847 -2.186,-0.337 -0.696,0.511 -0.847,1.489 -0.336,2.185 C -27.091,-21.626 -12.953,-2.055 0,0" /></g><g
           transform="translate(57.3984,73.3271)"
           id="g56"><path
             id="path58"
             style="fill:#f4cec5;fill-opacity:1;fill-rule:evenodd;stroke:none"
             d="m 0,0 c 0.604,11.828 3.246,48.189 -14.552,45.447 -9.079,-1.398 -11.027,-13.238 -9.12,-21.584 2.83,-12.435 4.09,-25.618 5.122,-38.469 0.82,-10.296 6.505,-29.376 1.257,-38.642 -1.986,-3.504 -5.227,-6.559 -6.982,-10.166 -0.764,-1.569 -1.62,-3.609 -0.807,-5.261 1.221,-2.481 5.311,-1.25 8.09,-1.888 2.431,-0.559 3.688,-0.593 5.15,1.141 3.833,4.531 7.037,8.635 9.196,13.732 2.111,4.996 0.093,11.064 0.744,16.257 C -0.251,-26.227 -0.68,-13.247 0,0" /></g><g
           transform="translate(59.3027,74.6875)"
           id="g60"><path
             id="path62"
             style="fill:#5c5c5b;fill-opacity:1;fill-rule:evenodd;stroke:none"
             d="m 0,0 -0.076,-1.454 c -0.237,-4.64 -0.34,-9.154 -0.44,-13.655 -0.194,-8.648 -0.387,-17.254 -1.468,-25.906 -0.235,-1.869 -0.087,-3.942 0.062,-6.032 0.256,-3.608 0.516,-7.263 -0.942,-10.715 -1.142,-2.694 -2.542,-5.1 -4.151,-7.414 -1.581,-2.272 -3.377,-4.476 -5.333,-6.79 l -0.004,0.003 c -1.038,-1.229 -2.053,-1.843 -3.297,-2.058 -1.099,-0.189 -2.219,-0.018 -3.657,0.312 -0.747,0.171 -1.712,0.175 -2.665,0.179 -2.698,0.009 -5.347,0.02 -6.658,2.684 -0.621,1.263 -0.623,2.593 -0.331,3.873 0.253,1.112 0.706,2.13 1.132,3.001 l 0.002,-10e-4 c 1.038,2.133 2.492,4.008 3.942,5.879 1.127,1.453 2.253,2.906 3.094,4.39 3.522,6.218 1.559,17.924 -0.071,27.644 -0.623,3.706 -1.199,7.139 -1.422,9.951 -0.514,6.391 -1.084,12.87 -1.88,19.311 -0.791,6.402 -1.799,12.729 -3.183,18.827 l -0.015,0.065 c -0.15,0.652 -0.275,1.301 -0.372,1.937 -0.65,4.219 -0.406,9.009 1.055,13.01 1.553,4.252 4.449,7.636 9.054,8.688 l 10e-4,-10e-4 0.006,10e-4 c 0.324,0.074 0.621,0.132 0.888,0.173 C -6.573,47.467 -2.232,38.588 -0.541,27.608 0.957,17.887 0.347,6.47 0,0 m -3.734,-1.267 0.077,1.453 c 0.338,6.324 0.934,17.482 -0.513,26.877 -1.389,9.01 -4.668,16.341 -12.014,15.209 -0.246,-0.038 -0.454,-0.077 -0.623,-0.115 v -10e-4 c -3.213,-0.734 -5.279,-3.219 -6.427,-6.364 -1.241,-3.396 -1.438,-7.531 -0.87,-11.216 0.09,-0.591 0.196,-1.147 0.315,-1.665 l 0.015,-0.074 c 1.428,-6.292 2.456,-12.728 3.254,-19.191 0.799,-6.471 1.375,-13.011 1.895,-19.468 0.215,-2.698 0.773,-6.032 1.379,-9.635 1.726,-10.299 3.807,-22.7 -0.358,-30.055 -0.968,-1.708 -2.175,-3.263 -3.381,-4.82 -1.335,-1.722 -2.673,-3.447 -3.544,-5.239 l -0.003,-0.006 0.003,-0.001 c -0.34,-0.696 -0.697,-1.485 -0.859,-2.198 -0.124,-0.543 -0.147,-1.06 0.044,-1.449 0.313,-0.635 1.829,-0.642 3.373,-0.648 1.179,-0.004 2.369,-0.009 3.483,-0.264 0.994,-0.228 1.718,-0.354 2.222,-0.268 0.356,0.061 0.699,0.299 1.12,0.8 l 0.004,0.003 -0.004,0.003 c 1.876,2.219 3.599,4.332 5.119,6.518 1.491,2.144 2.773,4.339 3.791,6.74 1.111,2.63 0.882,5.853 0.656,9.035 -0.162,2.279 -0.323,4.539 -0.049,6.736 1.074,8.594 1.265,17.044 1.455,25.532 0.103,4.603 0.207,9.22 0.44,13.771" /></g><g
           transform="translate(83.125,91.9482)"
           id="g64"><path
             id="path66"
             style="fill:#f4cec5;fill-opacity:1;fill-rule:evenodd;stroke:none"
             d="m 0,0 c -6.043,8.314 -16.894,26.471 -26.356,26.987 -12.875,0.705 -4.12,-21.719 -0.24,-29.595 8.416,-17.127 23.238,-23.11 31.233,-41.319 2.595,-5.91 4.398,-12.845 5.484,-19.246 0.984,-5.782 0.547,-11.997 0.121,-18.174 -0.185,-2.704 -0.504,-6.995 1.93,-8.372 1.403,-0.8 3.195,0.391 4.746,1.269 1.869,1.053 3.769,1.881 5.232,3.534 2.957,3.355 3.776,19.138 2.35,21.991 -1.953,3.92 -2.007,8.791 -3.184,13.088 C 16.184,-31.15 10.895,-14.986 0,0" /></g><g
           transform="translate(81.4912,97.4717)"
           id="g68"><path
             id="path70"
             style="fill:#5c5c5b;fill-opacity:1;fill-rule:evenodd;stroke:none"
             d="m 0,0 c 1.103,-1.599 2.117,-3.069 3.119,-4.447 5.538,-7.619 9.652,-15.538 13.034,-23.926 3.35,-8.312 5.976,-17.092 8.562,-26.507 0.471,-1.718 0.759,-3.426 1.046,-5.135 0.453,-2.693 0.906,-5.391 2.015,-7.616 l -0.005,-0.002 c 0.921,-1.85 1.103,-7.75 0.522,-13.194 -0.487,-4.569 -1.524,-9 -3.132,-10.824 l -0.004,0.003 -0.004,-0.003 c -1.41,-1.596 -3.029,-2.469 -4.687,-3.365 -0.298,-0.16 -0.602,-0.324 -0.974,-0.533 l -0.029,-0.017 -0.424,-0.244 -0.003,0.007 c -1.877,-1.082 -3.953,-2.275 -6.135,-1.032 -3.416,1.934 -3.076,6.862 -2.859,10.018 l 0.005,0.069 0.009,0.123 c 0.415,6.03 0.832,12.096 -0.108,17.627 -0.558,3.29 -1.314,6.736 -2.278,10.12 -0.864,3.033 -1.889,5.989 -3.077,8.696 -4.026,9.168 -9.922,15.216 -15.801,21.246 -5.597,5.741 -11.18,11.468 -15.344,19.896 -0.017,0.031 -0.036,0.064 -0.052,0.098 -1.817,3.686 -4.679,10.498 -5.997,16.757 -0.689,3.282 -0.962,6.448 -0.464,9.027 0.577,2.992 2.119,5.223 5.07,6.105 0.973,0.292 2.091,0.415 3.365,0.345 C -15.733,22.807 -6.448,9.349 0,0 m 0.149,-6.6 c -0.875,1.204 -1.97,2.793 -3.162,4.52 -6.03,8.741 -14.713,21.327 -21.802,21.715 -0.84,0.045 -1.547,-0.028 -2.133,-0.202 -1.428,-0.427 -2.198,-1.632 -2.516,-3.28 -0.398,-2.061 -0.148,-4.743 0.45,-7.591 1.242,-5.902 3.964,-12.372 5.695,-15.883 0.015,-0.031 0.029,-0.061 0.042,-0.091 3.899,-7.896 9.29,-13.427 14.694,-18.97 6.109,-6.266 12.236,-12.551 16.533,-22.336 1.271,-2.893 2.35,-6.002 3.249,-9.156 0.994,-3.489 1.78,-7.076 2.364,-10.521 1.012,-5.956 0.581,-12.232 0.151,-18.474 l -0.009,-0.123 -0.005,-0.07 c -0.155,-2.259 -0.398,-5.791 1.009,-6.587 0.372,-0.212 1.494,0.433 2.509,1.018 l 0.003,0.001 -0.003,0.006 0.424,0.243 0.054,0.029 c 0.298,0.168 0.664,0.366 1.033,0.565 1.374,0.74 2.713,1.463 3.681,2.557 l -0.004,0.002 c 1.062,1.206 1.823,4.866 2.243,8.788 0.521,4.875 0.491,9.889 -0.151,11.174 l -0.001,0.002 -0.006,-0.002 c -1.345,2.699 -1.845,5.676 -2.345,8.649 -0.278,1.649 -0.555,3.298 -0.96,4.776 -2.546,9.271 -5.133,17.917 -8.433,26.106 -3.272,8.112 -7.249,15.77 -12.604,23.135" /></g><g
           transform="translate(77.082,130.0391)"
           id="g72"><path
             id="path74"
             style="fill:#ee751e;fill-opacity:1;fill-rule:evenodd;stroke:none"
             d="m 0,0 -36.651,0.89 c 0,0 -19.753,-9.849 -20.741,-67.363 2.181,-10.45 11.396,-13.73 25.247,-10.209 4.327,-6.418 22.229,-7.082 33.782,-0.043 13.082,-3.456 21.597,5.855 24.845,12.87 C 18.584,-43.271 25.176,-18.26 0,0" /></g><g
           transform="translate(39.7012,132.3115)"
           id="g76"><path
             id="path78"
             style="fill:#5c5c5b;fill-opacity:1;fill-rule:evenodd;stroke:none"
             d="m 0,0 c 0.765,0.402 1.711,0.109 2.113,-0.654 0.402,-0.765 0.109,-1.711 -0.655,-2.113 -0.054,-0.028 -18.895,-9.409 -19.903,-65.822 0.041,-0.187 0.089,-0.389 0.143,-0.602 h 0.001 c 1.047,-4.118 3.38,-6.879 6.795,-8.318 3.583,-1.51 8.395,-1.64 14.211,-0.428 0.652,0.136 1.367,0.303 2.146,0.501 0.672,0.171 1.355,-0.123 1.709,-0.679 1.934,-2.817 7.186,-4.342 13.319,-4.349 6.09,-0.009 12.939,1.521 18.324,4.801 0.379,0.23 0.817,0.281 1.213,0.177 v 0.001 c 5.153,-1.362 9.526,-0.586 13.075,1.253 4.595,2.379 7.859,6.534 9.671,10.177 -2.387,6.478 -3.415,13.294 -4.456,20.193 -2.249,14.906 -4.56,30.222 -21.243,42.322 -0.7,0.507 -0.857,1.486 -0.35,2.186 0.507,0.7 1.487,0.855 2.186,0.348 17.748,-12.873 20.158,-28.846 22.504,-44.391 1.05,-6.956 2.087,-13.824 4.523,-20.173 l -0.002,-0.001 c 0.145,-0.38 0.143,-0.815 -0.041,-1.212 -1.978,-4.273 -5.808,-9.354 -11.359,-12.229 -4.028,-2.086 -8.936,-3.015 -14.662,-1.658 -5.799,-3.356 -12.99,-4.924 -19.383,-4.916 -6.565,0.008 -12.389,1.71 -15.246,4.873 -0.42,-0.098 -0.85,-0.192 -1.291,-0.284 -6.44,-1.343 -11.876,-1.152 -16.061,0.611 -4.354,1.834 -7.314,5.296 -8.617,10.423 v 10e-4 0.006 c -0.067,0.265 -0.137,0.561 -0.205,0.893 h 0.002 c -0.023,0.111 -0.034,0.225 -0.033,0.342 C -20.568,-10.27 -0.059,-0.031 0,0" /></g><g
           transform="translate(124.9551,133.791)"
           id="g80"><path
             id="path82"
             style="fill:#5c5c5b;fill-opacity:1;fill-rule:evenodd;stroke:none"
             d="m 0,0 c -0.861,-0.037 -1.59,0.632 -1.627,1.493 -0.011,0.233 0.03,0.455 0.113,0.657 -2.18,-0.308 -4.685,-0.435 -7.168,-0.067 -0.855,0.125 -1.447,0.92 -1.322,1.775 0.125,0.856 0.92,1.448 1.775,1.323 C -2.227,4.292 3.994,6.698 4.012,6.705 V 6.704 C 4.402,6.85 4.852,6.839 5.254,6.638 6.025,6.252 6.338,5.314 5.952,4.544 5.945,4.532 3.791,0.175 0,0" /></g><g
           transform="translate(73.0107,168.6133)"
           id="g84"><path
             id="path86"
             style="fill:#ee751e;fill-opacity:1;fill-rule:evenodd;stroke:none"
             d="m 0,0 -24.035,4.65 c 0,0 -13.98,-15.172 -8.545,-42.335 0,0 12.866,-8.118 36.651,-0.889 0,0 -6.799,19.006 -4.071,38.574" /></g><g
           transform="translate(47.8125,174.3096)"
           id="g88"><path
             id="path90"
             style="fill:#5c5c5b;fill-opacity:1;fill-rule:evenodd;stroke:none"
             d="m 0,0 c 0.578,0.643 1.567,0.694 2.209,0.117 0.643,-0.578 0.695,-1.567 0.117,-2.21 -0.037,-0.042 -13.209,-14.34 -8.305,-40.283 2.625,-1.366 13.992,-6.277 33.262,-0.848 -1.549,4.977 -5.947,21.136 -3.634,37.743 0.119,0.854 0.909,1.452 1.763,1.334 0.856,-0.119 1.453,-0.909 1.335,-1.763 -2.675,-19.192 3.979,-37.793 3.997,-37.846 l -0.001,-10e-4 0.021,-0.06 c 0.25,-0.826 -0.217,-1.698 -1.041,-1.948 -23.313,-7.084 -36.59,0.263 -37.825,0.992 -0.408,0.211 -0.72,0.6 -0.816,1.085 C -14.508,-15.749 -0.041,-0.045 0,0" /></g><g
           transform="translate(72.1172,169.8994)"
           id="g92"><path
             id="path94"
             style="fill:#5c5c5b;fill-opacity:1;fill-rule:evenodd;stroke:none"
             d="m 0,0 c 0.71,0.493 1.686,0.317 2.18,-0.393 0.492,-0.71 0.317,-1.685 -0.393,-2.178 l -16.826,-11.704 c -0.711,-0.494 -1.687,-0.318 -2.18,0.391 -0.494,0.71 -0.318,1.687 0.393,2.18 z" /></g><g
           transform="translate(48.9756,173.2637)"
           id="g96"><path
             id="path98"
             style="fill:#ee751e;fill-opacity:1;fill-rule:evenodd;stroke:none"
             d="m 0,0 7.208,-16.354 c 0,0 -7.053,5.866 -7.208,16.354" /></g><g
           transform="translate(57.1934,158.1035)"
           id="g100"><path
             id="path102"
             style="fill:#5c5c5b;fill-opacity:1;fill-rule:evenodd;stroke:none"
             d="m 0,0 c 0.659,-0.558 0.742,-1.545 0.184,-2.204 -0.557,-0.658 -1.544,-0.741 -2.204,-0.184 -0.021,0.019 -7.592,6.317 -7.759,17.53 -0.01,0.862 0.681,1.569 1.543,1.579 0.862,0.009 1.57,-0.681 1.58,-1.542 C -6.512,5.415 -0.018,0.015 0,0" /></g><g
           transform="translate(86.0068,182.1016)"
           id="g104"><path
             id="path106"
             style="fill:#f4cec5;fill-opacity:1;fill-rule:evenodd;stroke:none"
             d="M 0,0 5.139,14.627 C 13.72,11.44 8.681,-2.017 0,0" /></g><g
           transform="translate(90.6006,195.2656)"
           id="g108"><path
             id="path110"
             style="fill:#5c5c5b;fill-opacity:1;fill-rule:evenodd;stroke:none"
             d="m 0,0 c -0.808,0.301 -1.219,1.2 -0.918,2.008 0.301,0.808 1.2,1.219 2.008,0.918 3.425,-1.272 5.086,-3.892 5.402,-6.764 0.149,-1.349 -0.013,-2.752 -0.437,-4.087 -0.419,-1.316 -1.099,-2.571 -1.99,-3.64 -2.067,-2.481 -5.252,-3.996 -9.007,-3.123 -0.842,0.192 -1.369,1.032 -1.176,1.874 0.192,0.84 1.031,1.367 1.873,1.174 2.454,-0.569 4.547,0.432 5.912,2.07 0.632,0.759 1.114,1.651 1.412,2.588 0.293,0.92 0.404,1.882 0.304,2.801 C 3.188,-2.415 2.148,-0.798 0,0" /></g><g
           transform="translate(61.1953,219.8623)"
           id="g112"><path
             id="path114"
             style="fill:#f4cec5;fill-opacity:1;fill-rule:evenodd;stroke:none"
             d="M 0,0 C 0.012,0.012 0.026,0.03 0.037,0.04 1.98,-8.313 10.939,-13.122 18.672,-8.517 16.631,-18.783 29.041,-24.953 31.271,-17.11 26.394,-33.939 23.042,-52.355 -1.312,-49.686 -33.416,-46.175 -31.066,-20.254 -27.899,-10.862 -19.471,-15.304 -5.205,-7.273 0,0" /></g><g
           transform="translate(61.749,215.2471)"
           id="g116"><path
             id="path118"
             style="fill:#5c5c5b;fill-opacity:1;fill-rule:evenodd;stroke:none"
             d="m 0,0 c -0.384,0.645 -0.723,1.321 -1.013,2.027 -3.192,-3.556 -8.149,-7.036 -13.302,-9.042 -4.594,-1.788 -9.388,-2.427 -13.342,-0.974 -0.432,-1.55 -0.815,-3.418 -1.04,-5.482 -0.519,-4.747 -0.206,-10.498 2.245,-15.715 2.431,-5.176 7.004,-9.864 15.027,-12.57 2.793,-0.942 6.006,-1.646 9.693,-2.049 20.937,-2.295 25.645,11.974 29.828,26.739 -0.234,-0.071 -0.473,-0.126 -0.718,-0.167 -1.099,-0.185 -2.279,-0.062 -3.44,0.331 -1.105,0.374 -2.207,1.001 -3.208,1.842 -2.35,1.977 -4.147,5.153 -4.112,9.012 -0.613,-0.24 -1.23,-0.43 -1.847,-0.573 l 10e-4,-0.002 C 11.827,-7.308 8.888,-6.93 6.302,-5.735 3.736,-4.551 1.521,-2.559 0,-0.005 Z M -1.485,5.477 -1.474,5.489 -1.475,5.49 -1.458,5.508 0.173,7.312 0.724,4.944 C 1.033,3.613 1.532,2.388 2.181,1.3 l 0.002,10e-4 c 1.255,-2.11 3.08,-3.752 5.185,-4.725 2.086,-0.963 4.455,-1.268 6.826,-0.718 h 0.004 c 1.096,0.255 2.195,0.693 3.268,1.332 l 2.461,1.466 -0.558,-2.802 c -0.776,-3.902 0.796,-7.122 2.995,-8.97 0.748,-0.628 1.569,-1.097 2.392,-1.375 0.768,-0.26 1.526,-0.346 2.204,-0.232 1.126,0.19 2.083,0.999 2.531,2.577 l 0.004,-10e-4 0.002,0.006 2.445,-0.702 c -0.024,-0.089 -0.05,-0.177 -0.078,-0.261 -0.24,-0.835 -0.574,-2.023 -0.905,-3.194 -4.595,-16.303 -9.199,-32.642 -32.96,-30.038 -3.873,0.423 -7.266,1.168 -10.232,2.168 -8.786,2.964 -13.82,8.155 -16.522,13.907 -2.683,5.711 -3.033,11.94 -2.474,17.059 0.317,2.897 0.927,5.452 1.57,7.358 l 0.478,1.418 1.321,-0.695 c 3.457,-1.821 8.107,-1.281 12.628,0.478 5.602,2.181 10.926,6.203 13.641,9.996 l 0.036,0.049 z" /></g><g
           transform="translate(58.4277,176.9326)"
           id="g120"><path
             id="path122"
             style="fill:#ffffff;fill-opacity:1;fill-rule:evenodd;stroke:none"
             d="m 0,0 c -0.268,0 -0.54,0.013 -0.812,0.037 -2.293,0.214 -4.363,1.307 -5.83,3.076 -1.465,1.768 -2.153,3.997 -1.936,6.281 0,0.01 0.002,0.019 0.003,0.03 2.716,-0.992 5.552,-1.631 8.452,-1.903 1.051,-0.097 2.111,-0.148 3.157,-0.148 1.849,0 3.695,0.154 5.513,0.456 C 8.545,7.816 8.544,7.805 8.543,7.792 8.131,3.353 4.458,0 0,0" /></g><g
           transform="translate(48.6895,188.5049)"
           id="g124"><path
             id="path126"
             style="fill:#5c5c5b;fill-opacity:1;fill-rule:evenodd;stroke:none"
             d="m 0,0 v 0 c -0.207,-0.647 -0.335,-1.33 -0.4,-2.031 -0.528,-5.587 3.584,-10.543 9.179,-11.064 0.323,-0.03 0.642,-0.045 0.959,-0.045 5.186,0 9.616,3.952 10.105,9.222 0.061,0.704 0.057,1.397 -0.022,2.072 -2.275,-0.515 -4.635,-0.785 -7.049,-0.785 -0.995,0 -1.999,0.046 -3.01,0.139 C 6.305,-2.167 3.025,-1.305 0,0 m 2.818,-4.341 c 2.164,-0.633 4.391,-1.059 6.655,-1.271 1.095,-0.102 2.205,-0.154 3.299,-0.154 1.165,0 2.327,0.059 3.482,0.173 -1.035,-2.615 -3.565,-4.412 -6.516,-4.412 -0.22,0 -0.445,0.01 -0.669,0.031 -1.874,0.175 -3.567,1.068 -4.766,2.516 -0.759,0.915 -1.263,1.982 -1.485,3.117" /></g><g
           transform="translate(64.5781,239.1533)"
           id="g128"><path
             id="path130"
             style="fill:#ee751e;fill-opacity:1;fill-rule:evenodd;stroke:none"
             d="M 0,0 C 0,0 5.834,20.368 4.041,32.321 L 11.426,21.456 19.85,34.937 17.629,20.669 c 0,0 10.662,6.285 14.56,7.329 C 26.697,19.427 19.148,4.045 17.559,-1.407 13.22,-1.252 9.689,-1.211 7.568,-3.632 7.568,-3.632 5.715,1.116 0,0" /></g><g
           transform="translate(70.5215,265.9014)"
           id="g132"><path
             id="path134"
             style="fill:#5c5c5b;fill-opacity:1;fill-rule:evenodd;stroke:none"
             d="m 0,0 c -0.082,-9.309 -2.678,-20.419 -3.859,-25.016 2.974,-0.119 4.825,-1.692 5.859,-3.003 1.035,0.661 2.225,1.047 3.544,1.26 1.503,0.243 3.155,0.252 4.946,0.202 1.06,3.063 3.225,7.909 5.759,13.003 1.943,3.906 4.116,7.986 6.185,11.543 C 18,-4.169 12.497,-7.413 12.476,-7.426 v 0.001 c -0.3,-0.176 -0.66,-0.254 -1.029,-0.196 -0.851,0.132 -1.435,0.93 -1.303,1.781 l 1.047,6.732 -4.38,-7.01 -0.004,0.002 C 6.695,-6.297 6.545,-6.457 6.357,-6.584 5.645,-7.067 4.674,-6.881 4.19,-6.168 Z m -7.431,-26.26 c 0.356,1.263 5.667,20.356 3.98,31.607 -0.125,0.855 0.468,1.65 1.322,1.775 0.658,0.096 1.281,-0.232 1.59,-0.778 l 5.965,-8.777 7.152,11.448 c 0.457,0.733 1.422,0.958 2.155,0.502 0.581,-0.362 0.843,-1.042 0.7,-1.674 l -1.704,-10.95 c 3.503,1.972 9.347,5.128 12.113,5.869 0.834,0.223 1.692,-0.273 1.916,-1.108 0.123,-0.462 0.026,-0.93 -0.226,-1.295 -2.639,-4.127 -5.774,-9.872 -8.479,-15.309 -2.824,-5.677 -5.157,-10.959 -5.938,-13.641 -0.203,-0.701 -0.855,-1.15 -1.554,-1.126 -2.088,0.075 -3.977,0.123 -5.528,-0.127 -1.343,-0.217 -2.447,-0.668 -3.232,-1.564 -0.569,-0.65 -1.555,-0.715 -2.203,-0.148 -0.192,0.169 -0.333,0.373 -0.422,0.595 l -0.001,-0.001 c -0.003,0.01 -1.382,3.544 -5.819,2.677 -0.848,-0.165 -1.67,0.389 -1.836,1.237 -0.053,0.273 -0.032,0.542 0.049,0.788" /></g><g
           transform="translate(36.707,222.6455)"
           id="g136"><path
             id="path138"
             style="fill:#5c5c5b;fill-opacity:1;fill-rule:evenodd;stroke:none"
             d="m 0,0 c 0.751,-0.429 1.012,-1.386 0.582,-2.137 -0.43,-0.75 -1.387,-1.01 -2.137,-0.581 -1.119,0.644 -2.084,0.508 -2.778,-0.068 -0.714,-0.594 -1.237,-1.6 -1.472,-2.766 -0.246,-1.223 -0.165,-2.589 0.346,-3.828 0.878,-2.133 3.113,-4.2 7.262,-4.265 0.861,-0.009 1.544,-0.425 1.533,-1.288 -0.01,-0.861 -0.595,-1.205 -1.457,-1.195 -5.666,0.087 -8.92,2.384 -10.228,5.561 -0.755,1.832 -0.878,3.838 -0.516,5.628 0.372,1.846 1.27,3.5 2.537,4.552 C -4.65,1.008 -2.436,1.399 0,0" /></g><g
           transform="translate(87.7324,94.5283)"
           id="g140"><path
             id="path142"
             style="fill:#ffffff;fill-opacity:1;fill-rule:evenodd;stroke:none"
             d="m 0,0 c -0.498,1.454 -1.553,2.513 -3.016,3.007 -0.591,0.203 -0.591,0.417 0,0.619 C -1.553,4.119 -0.498,5.181 0,6.63 0.197,7.229 0.41,7.229 0.613,6.63 1.107,5.181 2.168,4.119 3.619,3.626 4.217,3.424 4.217,3.21 3.619,3.007 2.168,2.513 1.107,1.454 0.613,-0.002 0.41,-0.594 0.197,-0.594 0,0" /></g><g
           transform="translate(87.6133,68.0059)"
           id="g144"><path
             id="path146"
             style="fill:#ffffff;fill-opacity:1;fill-rule:evenodd;stroke:none"
             d="M 0,0 C 0.229,1.22 -0.101,2.385 -0.928,3.303 -1.266,3.68 -1.182,3.833 -0.684,3.737 0.533,3.509 1.695,3.842 2.625,4.667 2.996,5.01 3.146,4.92 3.049,4.424 2.827,3.204 3.154,2.044 3.983,1.12 4.324,0.744 4.241,0.593 3.738,0.688 2.521,0.916 1.357,0.584 0.436,-0.243 0.059,-0.582 -0.094,-0.496 0,0" /></g><g
           transform="translate(45.832,108.2227)"
           id="g148"><path
             id="path150"
             style="fill:#ffffff;fill-opacity:1;fill-rule:evenodd;stroke:none"
             d="m 0,0 c -1.406,1.071 -3.1,1.407 -4.812,0.944 -0.694,-0.19 -0.834,0.017 -0.395,0.592 1.076,1.406 1.407,3.101 0.944,4.811 -0.188,0.696 0.015,0.834 0.589,0.394 1.41,-1.076 3.106,-1.41 4.813,-0.945 C 1.843,5.985 1.975,5.782 1.539,5.202 0.461,3.804 0.127,2.104 0.589,0.392 0.781,-0.303 0.576,-0.438 0,0" /></g><g
           transform="translate(36.3076,87.5859)"
           id="g152"><path
             id="path154"
             style="fill:#ffffff;fill-opacity:1;fill-rule:evenodd;stroke:none"
             d="m 0,0 c -0.855,0.654 -1.884,0.857 -2.926,0.574 -0.427,-0.114 -0.511,0.014 -0.245,0.363 0.66,0.857 0.861,1.886 0.578,2.925 -0.113,0.43 0.012,0.514 0.36,0.245 C -1.374,3.455 -0.345,3.246 0.694,3.527 1.122,3.648 1.204,3.524 0.937,3.168 0.284,2.314 0.079,1.285 0.36,0.241 0.478,-0.187 0.352,-0.267 0,0" /></g><g
           transform="translate(50.3828,95.792)"
           id="g156"><path
             id="path158"
             style="fill:#ffffff;fill-opacity:1;fill-rule:evenodd;stroke:none"
             d="M 0,0 C -0.856,0.653 -1.885,0.854 -2.934,0.573 -3.357,0.459 -3.438,0.585 -3.171,0.936 -2.516,1.793 -2.318,2.822 -2.6,3.862 -2.708,4.29 -2.587,4.371 -2.234,4.104 -1.379,3.452 -0.349,3.247 0.693,3.527 1.117,3.646 1.199,3.519 0.936,3.168 0.277,2.314 0.075,1.284 0.361,0.238 0.471,-0.187 0.352,-0.27 0,0" /></g><g
           transform="translate(71.4375,109.4629)"
           id="g160"><path
             id="path162"
             style="fill:#ffffff;fill-opacity:1;fill-rule:evenodd;stroke:none"
             d="m 0,0 c -0.299,1.039 -1.004,1.819 -2.006,2.216 -0.412,0.158 -0.402,0.309 0.022,0.431 1.033,0.295 1.811,0.999 2.207,2.005 C 0.389,5.064 0.541,5.057 0.66,4.628 0.957,3.592 1.658,2.814 2.662,2.418 3.072,2.259 3.063,2.107 2.641,1.985 1.603,1.69 0.828,0.983 0.428,-0.02 0.267,-0.431 0.114,-0.42 0,0" /></g><g
           id="g164"><g
             id="g166" /><g
             id="g178"><g
               id="g176"
               clip-path="url(#clipPath170)"><g
                 id="g174"
                 transform="translate(43.4385,186.168)"><path
                   id="path172"
                   style="fill:#f4cec5;fill-opacity:1;fill-rule:evenodd;stroke:none"
                   d="M 0,0 C 1.587,0.157 2.567,1.141 0.796,3.099 -0.784,4.834 -6.351,5.022 -4.307,1.666 -3.567,0.448 -1.511,-0.151 0,0" /></g></g></g></g><g
           id="g180"><g
             id="g182" /><g
             id="g194"><g
               id="g192"
               clip-path="url(#clipPath186)"><g
                 id="g190"
                 transform="translate(75.0469,180.5625)"><path
                   id="path188"
                   style="fill:#f4cec5;fill-opacity:1;fill-rule:evenodd;stroke:none"
                   d="M 0,0 C 1.545,0.396 2.367,1.521 0.311,3.183 -1.512,4.655 -7.041,3.98 -4.512,0.983 -3.594,-0.112 -1.463,-0.383 0,0" /></g></g></g></g><g
           transform="translate(75.8613,198.2891)"
           id="g196"><path
             id="path198"
             style="fill:#ffffff;fill-opacity:1;fill-rule:evenodd;stroke:none"
             d="m 0,0 c -0.965,2.591 -3.854,3.914 -6.442,2.947 -2.599,-0.967 -3.917,-3.852 -2.954,-6.445 0.968,-2.594 3.851,-3.914 6.452,-2.95 C -0.354,-5.482 0.967,-2.599 0,0" /></g><g
           transform="translate(69.4189,201.2363)"
           id="g200"><path
             id="path202"
             style="fill:#5c5c5b;fill-opacity:1;fill-rule:evenodd;stroke:none"
             d="M 0,0 C 0.097,0.036 0.197,0.046 0.287,0.075 1.693,-0.381 2.89,-1.43 3.445,-2.921 4.407,-5.516 3.082,-8.402 0.487,-9.362 0.396,-9.4 0.294,-9.415 0.197,-9.443 -1.206,-8.982 -2.399,-7.937 -2.953,-6.445 -3.917,-3.853 -2.599,-0.967 0,0" /></g><g
           transform="translate(50.8496,201.0791)"
           id="g204"><path
             id="path206"
             style="fill:#ffffff;fill-opacity:1;fill-rule:evenodd;stroke:none"
             d="m 0,0 c -0.959,2.594 -3.844,3.919 -6.441,2.949 -2.592,-0.961 -3.918,-3.846 -2.953,-6.442 0.962,-2.596 3.852,-3.92 6.443,-2.947 C -0.353,-5.479 0.969,-2.594 0,0" /></g><g
           transform="translate(44.4082,204.0283)"
           id="g208"><path
             id="path210"
             style="fill:#5c5c5b;fill-opacity:1;fill-rule:evenodd;stroke:none"
             d="M 0,0 C 0.098,0.04 0.197,0.052 0.296,0.08 1.69,-0.378 2.887,-1.429 3.445,-2.918 4.409,-5.512 3.085,-8.398 0.492,-9.363 0.393,-9.401 0.296,-9.408 0.199,-9.44 -1.206,-8.98 -2.394,-7.934 -2.952,-6.442 -3.918,-3.847 -2.592,-0.961 0,0" /></g><g
           transform="translate(12.5537,208.8721)"
           id="g212"><path
             id="path214"
             style="fill:#ee751e;fill-opacity:1;fill-rule:evenodd;stroke:none"
             d="m 0,0 c -10.089,-0.62 -11.7,-12.222 -10.572,-20.213 0.798,-5.64 6.304,-24.471 15.558,-16.729 5.618,4.696 6.75,13.755 6.271,20.688 C 10.832,-10.091 7.79,0.479 0,0" /></g><g
           transform="translate(11.3477,210.3203)"
           id="g216"><path
             id="path218"
             style="fill:#5c5c5b;fill-opacity:1;fill-rule:evenodd;stroke:none"
             d="m 0,0 c 0.36,0.052 0.732,0.089 1.113,0.112 3.897,0.24 6.766,-1.777 8.812,-4.732 2.622,-3.787 3.838,-9.184 4.098,-12.978 0.278,-4.015 0.03,-8.735 -1.263,-13.005 -1.061,-3.499 -2.822,-6.695 -5.565,-8.988 -1.072,-0.896 -2.126,-1.497 -3.155,-1.842 -2.604,-0.873 -4.894,-0.143 -6.867,1.526 -1.749,1.478 -3.216,3.719 -4.4,6.172 -2.075,4.294 -3.332,9.338 -3.688,11.86 -0.117,0.832 -0.207,1.703 -0.262,2.598 -0.241,3.921 0.187,8.298 1.782,11.888 C -7.703,-3.585 -4.753,-0.67 0,0 M 1.298,-3.01 C 1,-3.027 0.711,-3.058 0.429,-3.097 c -3.503,-0.494 -5.697,-2.686 -6.97,-5.553 -1.369,-3.079 -1.729,-6.941 -1.514,-10.444 0.049,-0.807 0.131,-1.597 0.237,-2.352 0.328,-2.315 1.487,-6.957 3.407,-10.93 1.013,-2.097 2.223,-3.978 3.604,-5.144 1.156,-0.977 2.45,-1.42 3.855,-0.95 0.661,0.221 1.374,0.637 2.14,1.279 2.234,1.867 3.689,4.54 4.584,7.495 1.167,3.851 1.386,8.179 1.13,11.889 -0.233,3.381 -1.289,8.149 -3.548,11.411 C 5.896,-4.29 3.91,-2.849 1.298,-3.01" /></g><g
           transform="translate(16.168,170.4658)"
           id="g220"><path
             id="path222"
             style="fill:#ee751e;fill-opacity:1;fill-rule:evenodd;stroke:none"
             d="M 0,0 -2.525,-0.77 C -4.848,-5.755 -2.637,-27.135 2.26,-30.751 10.566,-30.195 1.672,-3.564 0,0" /></g><g
           transform="translate(15.0732,169.0586)"
           id="g224"><path
             id="path226"
             style="fill:#5c5c5b;fill-opacity:1;fill-rule:evenodd;stroke:none"
             d="m 0,0 -0.011,-0.023 c -1.134,-2.434 -1.021,-9.511 0.033,-16.119 0.805,-5.045 2.123,-9.693 3.791,-11.515 l 0.025,0.011 c 0.536,0.251 0.905,0.917 1.142,1.865 0.31,1.232 0.366,2.845 0.244,4.665 C 4.728,-13.688 1.364,-3.386 0,0 m -2.851,1.299 c 0.366,0.784 1.297,1.124 2.081,0.759 0.134,-0.063 0.255,-0.141 0.361,-0.232 0.118,0.423 0.413,0.794 0.843,0.995 0.78,0.366 1.71,0.029 2.075,-0.753 1.102,-2.351 5.269,-14.478 5.838,-22.975 0.14,-2.129 0.064,-4.067 -0.33,-5.633 -0.465,-1.852 -1.371,-3.237 -2.857,-3.934 -0.517,-0.242 -1.085,-0.389 -1.702,-0.431 v 0.003 c -0.357,-0.025 -0.725,0.073 -1.034,0.303 -2.616,1.933 -4.497,7.756 -5.487,13.967 -1.139,7.133 -1.161,14.986 0.212,17.931" /></g><g
           transform="translate(22.2461,157.9219)"
           id="g228"><path
             id="path230"
             style="fill:#f4cec5;fill-opacity:1;fill-rule:evenodd;stroke:none"
             d="M 0,0 C 0.709,1.61 2.493,4.692 -0.088,6.983 -1.213,7.985 -5.303,8.574 -6.193,7.21 -7.459,5.274 -1.803,0.774 0,0" /></g><g
           transform="translate(21.5254,160.1758)"
           id="g232"><path
             id="path234"
             style="fill:#5c5c5b;fill-opacity:1;fill-rule:evenodd;stroke:none"
             d="M 0,0 C 0.445,1.187 0.694,2.588 -0.402,3.561 L -0.405,3.563 -0.408,3.561 -0.445,3.591 C -0.895,3.885 -1.795,4.114 -2.707,4.176 -3.34,4.22 -3.898,4.206 -4.124,4.101 -4.069,3.864 -3.572,3.255 -2.932,2.552 -2.069,1.605 -0.951,0.673 0,0 M 2.354,-2.442 C 2.297,-2.564 2.245,-2.675 2.173,-2.838 L 2.158,-2.873 c -0.342,-0.794 -1.262,-1.161 -2.056,-0.82 -0.368,0.158 -0.835,0.421 -1.35,0.756 -1.207,0.79 -2.799,2.069 -3.998,3.383 C -6.73,2.075 -7.656,3.88 -7,5.408 l 0.002,-0.002 0.004,0.008 c 0.062,0.145 0.133,0.279 0.212,0.398 l 0.003,-0.001 c 0.039,0.06 0.082,0.12 0.129,0.179 0.033,0.048 0.07,0.093 0.109,0.138 0.859,0.965 2.46,1.278 4.042,1.17 C -1.103,7.203 0.389,6.778 1.256,6.211 1.419,6.105 1.56,6.001 1.674,5.898 L 1.671,5.896 C 4.887,3.038 3.319,-0.353 2.354,-2.442" /></g><g
           transform="translate(13.3457,154.0684)"
           id="g236"><path
             id="path238"
             style="fill:#f4cec5;fill-opacity:1;fill-rule:evenodd;stroke:none"
             d="m 0,0 -4.055,-2.12 c -2.763,3.143 -3.592,5.244 -3.466,8.037 0.146,3.423 1.91,6.706 4.642,8.674 1.218,0.879 4.445,2.333 5.538,0.474 C 3.693,13.317 1.563,10.59 1.077,8.977 0.924,8.472 0.861,7.931 0.768,7.41 0.603,6.521 -0.634,5.395 0,0" /></g><g
           transform="translate(10.4668,152.9824)"
           id="g240"><path
             id="path242"
             style="fill:#5c5c5b;fill-opacity:1;fill-rule:evenodd;stroke:none"
             d="m 0,0 c 0.57,-0.648 0.508,-1.639 -0.141,-2.21 -0.649,-0.571 -1.638,-0.508 -2.21,0.142 -1.489,1.692 -2.471,3.137 -3.081,4.578 -0.635,1.501 -0.845,2.935 -0.772,4.559 l 10e-4,0.019 c 0.086,1.941 0.629,3.839 1.531,5.528 0.912,1.703 2.197,3.202 3.76,4.327 0.18,0.13 0.394,0.27 0.631,0.41 0.83,0.487 2.004,1.002 3.146,1.186 1.467,0.236 2.906,-0.028 3.842,-1.326 C 6.789,17.099 6.854,17.005 6.891,16.94 6.906,16.913 6.922,16.886 6.936,16.858 8.02,14.91 6.973,12.802 6.076,11 5.809,10.461 5.56,9.96 5.455,9.615 L 5.426,9.523 C 5.359,9.277 5.309,8.966 5.259,8.658 L 5.25,8.608 C 5.232,8.505 5.213,8.392 5.184,8.221 L 5.182,8.216 5.184,8.215 C 5.116,7.852 5.007,7.59 4.872,7.266 4.546,6.482 3.98,5.122 4.435,1.263 4.532,0.404 3.916,-0.371 3.057,-0.47 2.198,-0.567 1.422,0.05 1.324,0.908 0.777,5.566 1.542,7.405 1.982,8.466 2.053,8.633 2.108,8.768 2.11,8.778 L 2.111,8.777 2.166,9.108 2.174,9.16 c 0.064,0.397 0.129,0.796 0.253,1.235 0.009,0.038 0.018,0.076 0.03,0.114 0.176,0.588 0.484,1.208 0.816,1.875 0.549,1.107 1.194,2.403 0.936,2.938 L 4.186,15.361 C 4.162,15.401 4.187,15.369 4.174,15.389 4.078,15.52 3.748,15.518 3.355,15.454 2.641,15.339 1.863,14.991 1.298,14.659 1.15,14.572 1.02,14.487 0.912,14.409 -0.26,13.565 -1.227,12.436 -1.916,11.146 -2.604,9.862 -3.016,8.424 -3.081,6.961 L -3.082,6.935 C -3.135,5.768 -2.992,4.754 -2.555,3.722 -2.092,2.628 -1.275,1.45 0,0" /></g><g
           transform="translate(12.3262,203.167)"
           id="g244"><path
             id="path246"
             style="fill:#ffffff;fill-opacity:1;fill-rule:evenodd;stroke:none"
             d="m 0,0 c -6.559,-0.154 -7.295,-8.208 -6.336,-13.818 0.676,-3.955 4.787,-17.259 10.613,-12.111 3.532,3.128 4.02,9.421 3.516,14.272 C 7.346,-7.342 5.064,0.122 0,0" /></g><g
           transform="translate(11.0957,204.1074)"
           id="g248"><path
             id="path250"
             style="fill:#5c5c5b;fill-opacity:1;fill-rule:evenodd;stroke:none"
             d="m 0,0 c 0.373,0.063 0.775,0.103 1.205,0.112 2.542,0.062 4.461,-1.409 5.861,-3.505 1.798,-2.69 2.733,-6.461 3.005,-9.098 0.29,-2.804 0.261,-6.082 -0.461,-9.014 -0.594,-2.416 -1.663,-4.609 -3.405,-6.152 -0.635,-0.562 -1.267,-0.945 -1.889,-1.172 -1.679,-0.614 -3.193,-0.137 -4.527,0.994 -1.167,0.989 -2.179,2.5 -3.021,4.174 -1.577,3.127 -2.6,6.894 -2.914,8.724 -0.192,1.127 -0.319,2.36 -0.348,3.62 -0.058,2.454 0.264,4.99 1.2,7.039 C -4.29,-2.083 -2.611,-0.446 0,0 M 1.256,-1.992 C 0.949,-2 0.648,-2.03 0.355,-2.079 -1.467,-2.391 -2.654,-3.568 -3.379,-5.153 -4.17,-6.885 -4.44,-9.097 -4.39,-11.268 c 0.027,-1.133 0.145,-2.263 0.325,-3.313 0.291,-1.706 1.246,-5.216 2.714,-8.132 0.728,-1.444 1.573,-2.724 2.501,-3.513 0.764,-0.647 1.59,-0.935 2.448,-0.622 0.381,0.139 0.786,0.39 1.213,0.767 1.384,1.227 2.251,3.045 2.751,5.08 0.659,2.67 0.682,5.695 0.413,8.296 -0.247,2.386 -1.077,5.773 -2.659,8.141 -1.025,1.534 -2.369,2.612 -4.06,2.572" /></g><g
           transform="translate(11.4902,201.8242)"
           id="g252"><path
             id="path254"
             style="fill:#5c5c5b;fill-opacity:1;fill-rule:evenodd;stroke:none"
             d="m 0,0 c -0.162,0.559 0.16,1.143 0.718,1.305 0.558,0.161 1.142,-0.16 1.303,-0.719 1.034,-3.558 1.676,-8.611 1.122,-13.25 -0.442,-3.685 -1.639,-7.14 -3.987,-9.478 -0.413,-0.41 -1.08,-0.408 -1.49,0.004 -0.41,0.412 -0.408,1.08 0.004,1.491 1.968,1.959 2.985,4.973 3.375,8.23 C 1.566,-8.063 0.966,-3.328 0,0" /></g><g
           transform="translate(5.6484,190.7363)"
           id="g256"><path
             id="path258"
             style="fill:#5c5c5b;fill-opacity:1;fill-rule:evenodd;stroke:none"
             d="m 0,0 c -0.582,0 -1.056,0.474 -1.056,1.057 0,0.584 0.474,1.056 1.056,1.056 0.148,0 0.721,0.313 1.441,0.785 0.703,0.462 1.461,1.059 2.05,1.68 C 3.893,4.999 4.56,5.017 4.98,4.615 5.158,4.445 5.265,4.229 5.297,4.004 L 5.338,3.753 C 5.928,0.136 6.45,-3.067 1.6,-5.531 1.08,-5.793 0.447,-5.584 0.185,-5.065 -0.077,-4.546 0.132,-3.912 0.65,-3.649 3.432,-2.237 3.725,-0.358 3.496,1.777 3.195,1.549 2.892,1.334 2.597,1.141 1.551,0.454 0.523,0 0,0" /></g><g
           transform="translate(106.9707,144.1074)"
           id="g260"><path
             id="path262"
             style="fill:none;stroke:#2b2b2a;stroke-width:0.21600001;stroke-linecap:butt;stroke-linejoin:miter;stroke-miterlimit:22.9260006;stroke-dasharray:none;stroke-opacity:1"
             d="m 0,0 c 2.55,-1.541 5.28,-3.026 8.07,-4.307 0.659,-0.302 1.321,-0.593 1.983,-0.871 5.908,-0.768 11.926,1.561 11.943,1.567 v -10e-4 c 0.391,0.146 0.84,0.135 1.242,-0.067 0.772,-0.384 1.084,-1.322 0.699,-2.093 -0.003,-0.007 -0.652,-1.318 -1.861,-2.53 0.988,-0.055 1.952,-0.044 2.885,0.043 0.859,0.078 1.619,-0.554 1.696,-1.413 l 0.001,-0.013 h 0.006 c 0.129,-1.523 0.032,-2.897 -0.256,-4.121 -0.512,-2.173 -1.621,-3.855 -3.142,-5.048 -1.494,-1.17 -3.356,-1.84 -5.412,-2.015 -0.875,-0.074 -1.787,-0.059 -2.721,0.045 -0.079,-2.574 -0.763,-4.164 -2.863,-3.976 -1.526,0.136 -3.895,2.176 -7.752,7.133 -4.431,1.402 -8.468,2.968 -12.132,4.621 -3.609,-3.374 -8.085,-5.831 -12.665,-6.96 -0.145,-0.036 -0.292,-0.071 -0.443,-0.106 10.37,-11.359 12.337,-24.363 14.255,-37.08 1.05,-6.956 2.087,-13.825 4.524,-20.174 l -0.002,-0.001 c 0.144,-0.379 0.142,-0.814 -0.041,-1.212 -0.898,-1.939 -2.177,-4.043 -3.825,-6.033 1.808,-5.415 3.435,-11.036 5.046,-16.904 0.471,-1.717 0.759,-3.425 1.046,-5.133 0.453,-2.695 0.906,-5.392 2.016,-7.617 l -0.006,-0.003 c 0.922,-1.849 1.104,-7.749 0.522,-13.194 -0.487,-4.568 -1.524,-9 -3.131,-10.824 l -0.004,0.004 -0.004,-0.004 c -1.41,-1.596 -3.029,-2.469 -4.688,-3.364 -0.298,-0.161 -0.601,-0.325 -0.973,-0.534 l -0.03,-0.017 -0.423,-0.242 -0.003,0.006 c -1.877,-1.082 -3.953,-2.275 -6.135,-1.032 -3.416,1.933 -3.076,6.862 -2.86,10.017 l 0.005,0.069 0.009,0.123 c 0.415,6.032 0.832,12.096 -0.107,17.627 -0.559,3.29 -1.315,6.737 -2.279,10.12 -0.864,3.035 -1.888,5.99 -3.077,8.698 -0.57,1.296 -1.177,2.532 -1.816,3.713 -1.682,-0.001 -3.449,0.198 -5.305,0.637 -5.799,-3.356 -12.989,-4.924 -19.383,-4.916 -0.399,0 -0.795,0.008 -1.189,0.021 -0.207,-4.354 -0.527,-8.708 -1.072,-13.074 -0.235,-1.869 -0.087,-3.942 0.062,-6.032 0.256,-3.608 0.516,-7.262 -0.942,-10.714 -1.142,-2.695 -2.542,-5.101 -4.151,-7.415 -1.581,-2.272 -3.377,-4.476 -5.333,-6.79 l -0.004,0.004 c -1.038,-1.23 -2.053,-1.844 -3.297,-2.057 -1.099,-0.191 -2.219,-0.02 -3.657,0.31 -0.747,0.171 -1.712,0.175 -2.665,0.179 -2.698,0.01 -5.347,0.02 -6.658,2.684 -0.621,1.263 -0.623,2.593 -0.331,3.873 0.253,1.113 0.706,2.13 1.132,3.002 l 0.002,-0.002 c 1.038,2.133 2.492,4.008 3.942,5.88 1.127,1.453 2.253,2.906 3.094,4.389 3.522,6.219 1.559,17.925 -0.071,27.645 -0.111,0.656 -0.219,1.303 -0.325,1.94 -4.32,-0.384 -8.064,0.064 -11.134,1.357 -4.355,1.834 -7.315,5.297 -8.617,10.424 v 0.006 c -0.068,0.265 -0.137,0.562 -0.206,0.894 h 0.002 c -0.022,0.11 -0.034,0.225 -0.033,0.342 0.871,50.709 16.42,65.129 20.564,68.079 -0.708,3.843 -1.035,7.448 -1.077,10.806 -4.475,-5.581 -8.754,-9.022 -12.311,-11.086 -2.582,-1.499 -4.815,-2.289 -6.49,-2.649 -1.983,-0.427 -3.475,-0.215 -4.057,0.166 l 0.003,0.005 -0.003,0.002 c -0.25,0.164 -0.443,0.366 -0.581,0.603 l 10e-4,10e-4 -0.008,0.012 c -0.158,0.278 -2.275,5.899 -3.72,11.821 -0.76,3.111 -1.354,6.356 -1.422,9.054 -0.328,0.056 -0.642,0.217 -0.885,0.478 -0.471,0.454 -0.922,0.894 -1.174,1.228 -0.031,0.039 -0.061,0.08 -0.09,0.123 -0.203,0.313 -0.392,0.635 -0.564,0.964 -0.541,0.789 -0.961,1.542 -1.28,2.294 -0.635,1.502 -0.845,2.936 -0.772,4.56 l 0.001,0.019 c 0.086,1.94 0.629,3.839 1.531,5.527 0.873,1.631 2.087,3.073 3.56,4.181 -0.284,0.192 -0.562,0.404 -0.834,0.634 -1.749,1.478 -3.216,3.719 -4.4,6.172 -2.075,4.293 -3.332,9.338 -3.688,11.86 -0.117,0.832 -0.207,1.704 -0.262,2.599 -0.241,3.919 0.187,8.296 1.782,11.887 1.692,3.804 4.642,6.719 9.395,7.39 0.36,0.051 0.732,0.089 1.113,0.111 3.897,0.24 6.766,-1.777 8.812,-4.732 2.622,-3.787 3.838,-9.184 4.098,-12.978 0.278,-4.015 0.03,-8.735 -1.263,-13.005 -1.061,-3.499 -2.823,-6.695 -5.565,-8.987 -0.197,-0.166 -0.396,-0.322 -0.593,-0.468 0.278,-0.694 0.628,-1.646 1.02,-2.785 l 0.057,-0.003 c 1.396,-0.096 2.887,-0.52 3.755,-1.087 0.163,-0.106 0.303,-0.211 0.418,-0.312 l -0.003,-0.004 c 3.215,-2.858 1.648,-6.247 0.682,-8.338 -0.056,-0.122 -0.108,-0.231 -0.18,-0.396 l -0.015,-0.034 c -0.271,-0.631 -0.906,-0.992 -1.555,-0.944 0.209,-0.933 0.403,-1.868 0.574,-2.795 4.149,5.14 13.985,16.213 23.516,18.707 l 0.055,0.076 c -6.814,3.058 -10.93,7.636 -13.28,12.639 -2.491,5.303 -2.97,11.05 -2.58,15.942 -0.162,0.693 -0.273,1.224 -0.476,1.275 l -0.077,0.02 c -6.417,1.594 -9.884,5.766 -11.019,10.818 -0.603,2.687 -0.529,5.612 0.124,8.505 0.646,2.862 1.857,5.701 3.532,8.253 3.958,6.032 10.528,10.54 18.461,10.164 2.074,5.138 6.972,9.307 12.464,11.522 2.216,0.894 4.546,1.476 6.838,1.68 1.988,0.176 3.948,0.066 5.781,-0.372 1.064,6.1 1.825,13.149 1.029,18.455 -0.125,0.855 0.467,1.65 1.322,1.775 0.658,0.096 1.281,-0.232 1.59,-0.778 l 5.965,-8.776 7.152,11.448 c 0.457,0.733 1.422,0.958 2.155,0.502 0.581,-0.363 0.843,-1.043 0.699,-1.675 l -1.704,-10.95 c 3.504,1.972 9.348,5.128 12.114,5.87 0.834,0.222 1.692,-0.274 1.916,-1.109 0.123,-0.461 0.026,-0.929 -0.226,-1.294 -2.64,-4.128 -5.774,-9.873 -8.479,-15.31 -0.581,-1.166 -1.14,-2.317 -1.67,-3.431 0.879,-0.19 1.748,-0.434 2.595,-0.733 1.8,-0.634 3.524,-1.517 5.091,-2.644 1.567,-1.132 3.052,-2.568 4.237,-4.21 1.09,-1.508 1.934,-3.195 2.368,-4.988 l 0.015,-0.079 c 0.559,-2.389 0.356,-4.622 0.151,-6.863 -0.229,-2.507 -0.459,-5.028 0.578,-7.491 1.014,-2.406 2.494,-4.654 3.976,-6.907 1.41,-2.145 2.827,-4.297 3.91,-6.621 C 3.869,62.848 3.881,62.819 3.893,62.789 5.215,59.923 6.136,56.623 6.561,53.273 6.979,49.983 6.918,46.641 6.289,43.607 5.475,39.671 3.586,36.129 1.732,32.653 1.124,31.513 0.52,30.378 -0.021,29.279 l -0.002,-0.005 0.002,-0.002 c -0.95,-1.927 -1.694,-3.949 -2.102,-6.012 -0.4,-2.024 -0.476,-4.085 -0.097,-6.132 l 0.001,0.001 c 0.271,-1.445 0.688,-2.915 1.104,-4.387 C -0.281,9.8 0.557,6.844 0.432,3.536 0.387,2.333 0.24,1.152 0,0 Z" /></g></g></g></g></svg>
