<svg
 xmlns="http://www.w3.org/2000/svg"
 xmlns:xlink="http://www.w3.org/1999/xlink"
 width="16px" height="26px">
<path fill-rule="evenodd"  fill="rgb(239, 129, 22)"
 d="M14.846,15.517 C14.088,16.321 13.176,16.902 12.164,17.308 C11.206,17.693 10.158,17.885 9.120,18.013 C9.277,18.190 9.351,18.277 9.449,18.379 C10.858,19.842 12.273,21.300 13.678,22.768 C14.157,23.269 14.256,23.889 13.992,24.471 C13.705,25.107 13.059,25.525 12.428,25.481 C12.027,25.452 11.714,25.246 11.436,24.956 C10.373,23.850 9.289,22.764 8.248,21.637 C7.945,21.309 7.799,21.372 7.531,21.656 C6.461,22.795 5.374,23.916 4.280,25.031 C3.788,25.531 3.205,25.621 2.634,25.336 C2.029,25.032 1.644,24.393 1.674,23.751 C1.695,23.317 1.901,22.985 2.189,22.687 C3.584,21.248 4.974,19.804 6.366,18.361 C6.459,18.266 6.544,18.165 6.679,18.016 C4.781,17.812 3.071,17.328 1.606,16.144 C1.424,15.997 1.237,15.855 1.070,15.690 C0.429,15.053 0.365,14.325 0.872,13.574 C1.306,12.931 2.035,12.758 2.793,13.128 C2.938,13.200 3.078,13.289 3.211,13.384 C5.941,15.324 9.690,15.377 12.431,13.472 C12.702,13.257 12.992,13.082 13.329,12.992 C13.983,12.818 14.592,13.067 14.944,13.658 C15.344,14.333 15.339,14.992 14.846,15.517 ZM7.834,13.002 C4.449,12.990 1.674,10.088 1.694,6.584 C1.713,3.040 4.491,0.185 7.909,0.195 C11.333,0.204 14.082,3.101 14.065,6.681 C14.047,10.179 11.253,13.013 7.834,13.002 ZM7.884,3.465 C6.190,3.463 4.838,4.874 4.851,6.630 C4.863,8.363 6.215,9.739 7.899,9.733 C9.579,9.727 10.916,8.332 10.911,6.592 C10.905,4.852 9.564,3.467 7.884,3.465 Z"/>
</svg>
