<svg
 xmlns="http://www.w3.org/2000/svg"
 xmlns:xlink="http://www.w3.org/1999/xlink"
 width="17px" height="22px">
<path fill-rule="evenodd"  fill="rgb(65, 109, 161)"
 d="M8.924,21.304 C11.296,21.285 13.123,20.752 14.405,19.705 C15.687,18.659 16.328,17.118 16.328,15.083 C16.328,13.891 16.019,12.883 15.402,12.060 C14.785,11.236 13.941,10.689 12.870,10.417 C13.807,10.049 14.539,9.470 15.065,8.680 C15.591,7.890 15.854,6.977 15.854,5.940 C15.854,4.041 15.199,2.599 13.888,1.616 C12.578,0.632 10.655,0.140 8.120,0.140 L0.802,0.140 L0.802,21.304 L8.924,21.304 ZM9.053,12.089 C11.033,12.118 12.023,13.101 12.023,15.039 C12.023,15.902 11.738,16.578 11.169,17.067 C10.600,17.557 9.808,17.801 8.795,17.801 L5.107,17.801 L5.107,12.089 L9.053,12.089 ZM5.107,3.672 L8.120,3.672 C9.306,3.672 10.174,3.883 10.724,4.305 C11.274,4.726 11.550,5.417 11.550,6.376 C11.550,8.091 10.464,8.969 8.292,9.007 L5.107,9.007 L5.107,3.672 Z"/>
</svg>
